<svg viewBox="0 0 512 512" xmlns="http://www.w3.org/2000/svg"><path d="m505.699219 246.300781c-4.800781-6.300781-112.097657-156.300781-250.699219-156.300781s-243.898438 150-248.699219 156.300781l-6.300781 8.699219 6.300781 8.699219c4.800781 6.300781 110.097657 156.300781 248.699219 156.300781s245.898438-150 250.699219-156.300781l6.300781-8.699219zm0 0" fill="#ececf1"/><path d="m512 255-6.300781 8.699219c-4.800781 6.300781-112.097657 156.300781-250.699219 156.300781v-330c138.601562 0 245.898438 150 250.699219 156.300781zm0 0" fill="#e2e2e7"/><path d="m255 150c-57.898438 0-105 47.101562-105 105s47.101562 105 105 105 105-47.101562 105-105-47.101562-105-105-105zm0 0" fill="#78b9eb"/><path d="m360 255c0 57.898438-47.101562 105-105 105v-210c57.898438 0 105 47.101562 105 105zm0 0" fill="#5aaae7"/><path d="m255 210c-24.902344 0-45 20.097656-45 45 0 24.898438 20.097656 45 45 45s45-20.101562 45-45c0-24.902344-20.097656-45-45-45zm0 0" fill="#5a5a5a"/><path d="m300 255c0 24.898438-20.097656 45-45 45v-90c24.902344 0 45 20.097656 45 45zm0 0" fill="#444"/><path d="m512 491-21 21-491-491 21-21zm0 0" fill="#ff3c7d"/><path d="m512 491-21 21-236-236v-42zm0 0" fill="#e50058"/></svg>