<?xml version="1.0"?>
<svg xmlns="http://www.w3.org/2000/svg" id="Layer_1" height="512px" viewBox="0 0 512 512" width="512px" data-name="Layer 1" class=""><g><path d="m453.1 58.56v50.29h-88.13v-50.29a44 44 0 0 1 43.92-44.06h.15a43.988 43.988 0 0 1 44.06 43.91z" fill="#00efd1" data-original="#00EFD1" class="" style="fill:#B35658" data-old_color="#00efd1"/><path d="m284.82 343.53a98.1 98.1 0 0 1 80.15-42.54c.26-.01.53-.01.79-.01a98.262 98.262 0 1 1 -80.94 42.55z" fill="#00efd1" data-original="#00EFD1" class="" style="fill:#B35658" data-old_color="#00efd1"/><path d="m284.82 343.53a98.322 98.322 0 0 0 -6.78 100.02c-93.85 0-230.06-.02-230.06-.02l2.1-387.59c0-23.08 18.88-41.44 41.96-41.44h316.85a44 44 0 0 0 -43.92 44.06v242.43a98.1 98.1 0 0 0 -80.15 42.54z" fill="#00acea" data-original="#00ACEA" class="" style="fill:#FFADB0" data-old_color="#00acea"/><path d="m205.54 72.32a71.255 71.255 0 1 1 -71.25 71.25 71.25 71.25 0 0 1 71.25-71.25z" fill="#fedb41" data-original="#FEDB41" class="active-path" style="fill:#FEDB41"/><path d="m205.54 139.93a12.45 12.45 0 1 1 12.45-12.45 6 6 0 0 0 12 0 24.486 24.486 0 0 0 -19.99-24.035v-4.445a6 6 0 0 0 -12 0v5.225a24.448 24.448 0 0 0 7.54 47.705 12.455 12.455 0 1 1 -12.45 12.46 6 6 0 0 0 -12 0 24.487 24.487 0 0 0 18.91 23.81v5.8a6 6 0 0 0 12 0v-6.033a24.453 24.453 0 0 0 -6.46-48.037z" fill="#00acea" data-original="#00ACEA" class="" style="fill:#FFADB0" data-old_color="#00acea"/><g fill="#fedb41"><path d="m324.97 269.53h-236.99a6 6 0 0 1 0-12h236.99a6 6 0 0 1 0 12z" data-original="#FEDB41" class="active-path" style="fill:#FEDB41"/><path d="m324.97 309.53h-236.99a6 6 0 0 1 0-12h236.99a6 6 0 0 1 0 12z" data-original="#FEDB41" class="active-path" style="fill:#FEDB41"/><path d="m284.87 349.53h-196.89a6 6 0 0 1 0-12h196.84a6 6 0 0 1 .05 12z" data-original="#FEDB41" class="active-path" style="fill:#FEDB41"/><path d="m268.46 389.53h-180.48a6 6 0 0 1 0-12h180.48a6 6 0 1 1 0 12z" data-original="#FEDB41" class="active-path" style="fill:#FEDB41"/></g><path d="m356.12 427.18h-.015a6 6 0 0 1 -4.248-1.778l-24.59-24.83a6 6 0 0 1 8.526-8.444l20.348 20.546 39.616-39.617a6 6 0 1 1 8.486 8.485l-43.88 43.881a6 6 0 0 1 -4.243 1.757z" fill="#00acea" data-original="#00ACEA" class="" style="fill:#FFADB0" data-old_color="#00acea"/></g> </svg>
