<svg height="400pt" viewBox="0 -8 400.00879 400" width="400pt" xmlns="http://www.w3.org/2000/svg"><path d="m392.003906 184.003906s-85.960937 104-192 104c-106.039062 0-192-104-192-104s85.960938-104 192-104c106.039063 0 192 104 192 104zm0 0" fill="#8dd8a1"/><path d="m264.003906 184.003906c0 35.347656-28.652344 64-64 64s-64-28.652344-64-64 28.652344-64 64-64 64 28.652344 64 64zm0 0" fill="#a2dfb3"/><path d="m386.917969 370.917969c-6.792969 6.78125-17.796875 6.78125-24.585938 0l-98.328125-98.328125 24.585938-24.585938 98.328125 98.328125c6.78125 6.789063 6.78125 17.792969 0 24.585938zm0 0" fill="#6bbabf"/><path d="m398.171875 189.109375c2.449219-2.960937 2.449219-7.242187 0-10.199219-3.609375-4.363281-89.609375-106.90625-198.167969-106.90625s-194.558594 102.542969-198.167968 106.90625c-2.449219 2.957032-2.449219 7.238282 0 10.199219 3.609374 4.359375 89.609374 106.894531 198.167968 106.894531 22-.183594 43.804688-4.113281 64.480469-11.625l92.191406 92.203125c9.921875 9.890625 25.976563 9.890625 35.898438 0 9.890625-9.921875 9.890625-25.976562 0-35.898437l-79.523438-79.519532c31.886719-19.535156 60.589844-43.835937 85.121094-72.054687zm-16.910156 176.160156c-3.667969 3.65625-9.605469 3.65625-13.273438 0l-92.671875-92.671875 13.273438-13.273437 92.671875 92.679687c3.648437 3.667969 3.648437 9.597656 0 13.265625zm-87.015625-122.914062c-3.125-3.121094-8.191406-3.121094-11.3125 0l-7.449219 7.449219c-.324219-1.339844-.992187-2.570313-1.945313-3.566407l-17.335937-17.335937c23.921875-29.925782 20.300781-73.324219-8.25-98.867188-28.550781-25.546875-72.085937-24.335937-99.175781 2.753906-27.085938 27.085938-28.296875 70.621094-2.75 99.171876 25.542968 28.550781 68.941406 32.171874 98.863281 8.25l17.335937 17.335937c1 .953125 2.230469 1.621094 3.570313 1.9375l-7.449219 7.457031c-.835937.859375-1.464844 1.898438-1.832031 3.039063-18.15625 6.433593-37.25 9.820312-56.511719 10.023437-87.664062 0-162.574218-75.464844-181.335937-96 18.738281-20.535156 93.550781-96 181.335937-96 87.664063 0 162.578125 75.480469 181.335938 96-23.472656 25.46875-50.464844 47.453125-80.160156 65.28125zm-94.242188-2.351563c-30.925781 0-56-25.070312-56-56 0-30.925781 25.074219-56 56-56 30.929688 0 56 25.074219 56 56-.035156 30.914063-25.085937 55.964844-56 56zm0 0" fill="#195c98"/><path d="m200.003906 216.003906c-10.082031.042969-19.582031-4.710937-25.597656-12.800781-2.652344-3.535156-7.667969-4.25-11.203125-1.597656-3.535156 2.648437-4.25 7.664062-1.597656 11.199219 9.027343 12.128906 23.277343 19.253906 38.398437 19.199218 4.417969 0 8-3.582031 8-8 0-4.417968-3.582031-8-8-8zm0 0" fill="#f0faf3"/><path d="m200.003906 136.003906c-4.417968 0-8 3.582032-8 8 0 4.417969 3.582032 8 8 8 17.671875 0 32 14.328125 32 32 0 4.417969 3.582032 8 8 8 4.417969 0 8-3.582031 8-8-.027344-26.5-21.5-47.972656-48-48zm0 0" fill="#f0faf3"/><path d="m200.003906.00390625c-4.417968 0-8 3.58203175-8 7.99999975v24.242188c-16.882812.40625-33.691406 2.40625-50.199218 5.972656l-6.039063-24.160156c-.679687-2.789063-2.800781-5-5.558594-5.796875-2.761719-.796875-5.734375-.050781-7.792969 1.953125-2.058593 2-2.886718 4.953125-2.167968 7.734375l6.046875 24.183593c-11.625 3.347657-22.960938 7.628907-33.898438 12.800782l-13.191406-26.503906c-1.972656-3.957032-6.78125-5.558594-10.734375-3.585938-3.953125 1.976562-5.558594 6.78125-3.585938 10.738281l13.363282 26.703125c-7.652344 4.347656-14.953125 9.285156-21.832032 14.765625l-18.714843-18.703125c-3.136719-3.03125-8.128907-2.988281-11.214844.097656-3.085937 3.085938-3.128906 8.074219-.097656 11.214844l24 24c2.785156 2.875 7.308593 3.132813 10.402343.59375.308594-.171875.605469-.363281.886719-.578125 21.804688-18.417969 47.679688-31.378906 75.488281-37.816406.269532-.011719.535157-.042969.800782-.09375.210937-.089844.421875-.1875.625-.296875 40.355468-9.957031 82.527344-9.957031 122.886718 0 .195313.105469.394532.203125.601563.289062.261719.046876.53125.078126.796875.09375 27.808594 6.441407 53.6875 19.398438 75.496094 37.808594 3.125 3.125 8.1875 3.125 11.3125 0l24-24c3.03125-3.140625 2.988281-8.128906-.097656-11.214844-3.085938-3.085937-8.074219-3.128906-11.214844-.097656l-18.710938 18.703125c-6.882812-5.480469-14.179687-10.417969-21.832031-14.765625l13.359375-26.703125c1.976562-3.957031.371094-8.761719-3.582031-10.738281-3.957031-1.972656-8.761719-.371094-10.738281 3.585938l-13.230469 26.460937c-10.9375-5.171875-22.273438-9.449219-33.894531-12.796875l6.046874-24.183594c1.035157-4.273437-1.566406-8.582031-5.832031-9.652344-4.261719-1.066406-8.589843 1.507813-9.6875 5.761719l-6.042969 24.160157c-16.515624-3.554688-33.332031-5.542969-50.222656-5.933594v-24.242188c0-4.417968-3.582031-7.99999975-8-7.99999975zm0 0" fill="#195c98"/></svg>