<svg height="511pt" viewBox="1 -22 511.99824 511" width="511pt" xmlns="http://www.w3.org/2000/svg"><g fill="#ffe795"><path d="m507.589844 96.707031-44.542969-44.542969c-5.882813-5.878906-15.417969-5.878906-21.296875 0l-47.253906 47.253907c-2.824219 2.824219-4.414063 6.65625-4.414063 10.648437 0 3.992188 1.585938 7.824219 4.414063 10.648438l44.539062 44.542968c2.941406 2.9375 6.796875 4.410157 10.648438 4.410157 3.855468 0 7.710937-1.472657 10.648437-4.410157l47.253907-47.257812c2.824218-2.820312 4.414062-6.652344 4.414062-10.644531 0-3.996094-1.585938-7.824219-4.410156-10.648438zm0 0"/><path d="m424.386719 179.90625-44.542969-44.539062c-5.878906-5.882813-15.414062-5.878907-21.296875 0l-47.253906 47.253906c-2.824219 2.824218-4.410157 6.65625-4.410157 10.648437 0 3.996094 1.585938 7.824219 4.410157 10.648438l44.542969 44.539062c2.941406 2.941407 6.792968 4.410157 10.648437 4.410157 3.851563 0 7.707031-1.46875 10.648437-4.410157l47.25-47.253906c2.824219-2.824219 4.414063-6.65625 4.414063-10.648437 0-3.992188-1.585937-7.824219-4.410156-10.648438zm0 0"/><path d="m463.046875 52.164062-47.253906-47.253906c-5.882813-5.882812-15.417969-5.882812-21.296875 0l-233.605469 233.605469c-2.824219 2.824219-4.414063 6.652344-4.414063 10.648437 0 3.992188 1.589844 7.824219 4.414063 10.644532l47.253906 47.257812c2.824219 2.824219 6.65625 4.410156 10.648438 4.410156 3.992187 0 7.824219-1.585937 10.648437-4.410156l233.605469-233.605468c5.882813-5.878907 5.882813-15.417969 0-21.296876zm0 0"/></g><path d="m463.046875 52.164062-23.621094-23.621093-254.902343 254.902343 23.621093 23.621094c2.824219 2.824219 6.65625 4.410156 10.648438 4.410156 3.992187 0 7.824219-1.585937 10.648437-4.410156l233.605469-233.605468c5.882813-5.878907 5.882813-15.417969 0-21.296876zm0 0" fill="#ffd330"/><path d="m228.0625 239.898438c-25.246094-25.246094-58.804688-39.148438-94.5-39.148438-35.683594 0-69.242188 13.902344-94.484375 39.148438-52.105469 52.101562-52.105469 136.882812 0 188.984374 25.203125 25.203126 58.761719 39.085938 94.484375 39.085938 35.734375 0 69.292969-13.878906 94.5-39.085938 25.238281-25.238281 39.136719-58.796874 39.136719-94.496093 0-35.707031-13.902344-69.261719-39.136719-94.488281zm-57.804688 94.488281c0 9.796875-3.816406 19.011719-10.746093 25.945312-6.914063 6.910157-16.128907 10.71875-25.949219 10.71875-9.808594 0-19.019531-3.808593-25.933594-10.71875-6.914062-6.917969-10.722656-16.128906-10.722656-25.945312 0-9.8125 3.804688-19.023438 10.730469-25.941407 6.921875-6.929687 16.128906-10.746093 25.925781-10.746093 9.808594 0 19.019531 3.816406 25.953125 10.757812 6.925781 6.917969 10.742187 16.128907 10.742187 25.929688zm0 0" fill="#ffd330"/><path d="m228.066406 239.902344-68.550781 68.554687c6.925781 6.917969 10.742187 16.128907 10.742187 25.929688 0 9.796875-3.816406 19.011719-10.746093 25.945312-6.914063 6.910157-16.128907 10.71875-25.949219 10.71875-9.808594 0-19.015625-3.804687-25.925781-10.714843l-68.554688 68.554687c25.207031 25.199219 58.761719 39.078125 94.480469 39.078125 35.734375 0 69.292969-13.878906 94.5-39.085938 25.238281-25.238281 39.136719-58.796874 39.136719-94.496093 0-35.703125-13.898438-69.257813-39.132813-94.484375zm0 0" fill="#ffbc36"/></svg>