<?xml version="1.0"?>
<svg xmlns="http://www.w3.org/2000/svg" height="512px" viewBox="0 -16 399.99456 399" width="512px" class=""><g><path d="m199.996094 144.445312c-70.773438 0-144 118.816407-144 160 .039062 35.332032 28.671875 63.960938 64 64 20.914062 0 40.960937-11.742187 57.066406-21.175781 6.957031-4.910156 14.71875-8.570312 22.933594-10.824219 8.214844 2.253907 15.976562 5.914063 22.9375 10.824219 16.105468 9.433594 36.152344 21.175781 57.0625 21.175781 35.332031-.039062 63.960937-28.667968 64-64 0-41.183593-73.222656-160-144-160zm0 0" fill="#de7229" data-original="#DE7229" class="active-path" style="fill:#FF3000" data-old_color="#DE7229"/><path d="m125.828125 337.351562c-10.058594.503907-19.890625-3.132812-27.199219-10.0625-14.601562-14.59375-10.703125-39.121093-10.527344-40.160156.78125-4.300781 4.863282-7.179687 9.175782-6.464844 4.308594.710938 7.253906 4.75 6.609375 9.070313-1.667969 9.226563.535156 18.730469 6.09375 26.28125 7.023437 5.390625 16.207031 7.082031 24.6875 4.542969 2.851562-.546875 5.777343.492187 7.644531 2.71875 1.863281 2.226562 2.375 5.289062 1.335938 8-1.039063 2.710937-3.464844 4.648437-6.339844 5.058594-3.792969.65625-7.632813.996093-11.480469 1.015624zm0 0" fill="#f3dbb8" data-original="#F3DBB8" class=""/><path d="m247.996094 216.445312h-24v-24c0-4.417968-3.582032-8-8-8h-32c-4.417969 0-8 3.582032-8 8v24h-24c-4.417969 0-8 3.582032-8 8v32c0 4.421876 3.582031 8 8 8h24v24c0 4.421876 3.582031 8 8 8h32c4.417968 0 8-3.578124 8-8v-24h24c4.417968 0 8-3.578124 8-8v-32c0-4.417968-3.582032-8-8-8zm0 0" fill="#6f4e49" data-original="#6F4E49" class="" style="fill:#FF3000" data-old_color="#6F4E49"/><g fill="#de7229"><path d="m189.132812 51.941406c-4.152343-18.792968-15.5-35.21875-31.609374-45.757812-8.878907-5.492188-19.625-7.089844-29.71875-4.425782-25.183594 7.089844-37.894532 40.113282-28.945313 75.203126 4.15625 18.792968 15.5 35.21875 31.609375 45.757812 6.109375 3.660156 13.078125 5.636719 20.199219 5.726562 3.21875 0 6.421875-.445312 9.519531-1.316406 25.1875-7.089844 37.898438-40.113281 28.945312-75.1875zm0 0" data-original="#000000" class="" style="fill:#000000"/><path d="m93.132812 139.941406c-4.152343-18.792968-15.5-35.214844-31.609374-45.75-8.875-5.496094-19.625-7.101562-29.71875-4.433594-25.183594 7.089844-37.894532 40.113282-28.945313 75.203126 4.152344 18.796874 15.5 35.222656 31.609375 45.757812 6.109375 3.660156 13.078125 5.636719 20.199219 5.726562 3.21875 0 6.421875-.445312 9.519531-1.316406 25.1875-7.089844 37.898438-40.113281 28.945312-75.1875zm0 0" data-original="#000000" class="" style="fill:#000000"/><path d="m272.1875 1.757812c-10.09375-2.667968-20.839844-1.0625-29.71875 4.433594-16.109375 10.535156-27.453125 26.957032-31.609375 45.75-8.949219 35.074219 3.761719 68.097656 28.945313 75.203125 3.097656.875 6.300781 1.316407 9.519531 1.320313 7.125-.097656 14.09375-2.082032 20.199219-5.746094 16.109374-10.535156 27.457031-26.957031 31.609374-45.75 8.953126-35.097656-3.757812-68.121094-28.945312-75.210938zm0 0" data-original="#000000" class="" style="fill:#000000"/><path d="m368.1875 89.757812c-10.09375-2.671874-20.84375-1.066406-29.71875 4.433594-16.109375 10.535156-27.453125 26.957032-31.609375 45.75-8.949219 35.074219 3.761719 68.097656 28.945313 75.203125 3.097656.875 6.300781 1.316407 9.519531 1.320313 7.125-.097656 14.09375-2.082032 20.199219-5.746094 16.109374-10.535156 27.457031-26.957031 31.609374-45.75 8.953126-35.089844-3.757812-68.121094-28.945312-75.210938zm0 0" data-original="#000000" class="" style="fill:#000000"/></g></g> </svg>
