<?xml version="1.0"?>
<svg xmlns="http://www.w3.org/2000/svg" height="512px" viewBox="0 0 512.00014 512" width="512px"><g><path d="m361 312.460938v-86.460938c0-44.140625-27.382812-82.003906-66.050781-97.507812 3.839843-6.621094 6.050781-14.300782 6.050781-22.492188 0-24.8125-20.1875-45-45-45s-45 20.1875-45 45c0 8.191406 2.210938 15.871094 6.050781 22.492188-38.667969 15.503906-66.050781 53.367187-66.050781 97.507812v86.460938l-28.414062 56.832031c-2.328126 4.648437-2.078126 10.171875.652343 14.59375 2.734375 4.421875 7.5625 7.113281 12.761719 7.113281h60c0 33.085938 26.917969 60 60 60 33.085938 0 60-26.914062 60-60h60c5.199219 0 10.027344-2.691406 12.761719-7.113281 2.730469-4.421875 2.980469-9.945313.65625-14.59375zm-120-206.460938c0-8.269531 6.730469-15 15-15s15 6.730469 15 15-6.730469 15-15 15-15-6.730469-15-15zm15 45c41.355469 0 75 33.644531 75 75v75h-150v-75c0-41.355469 33.644531-75 75-75zm0 270c-16.542969 0-30-13.46875-30-30.011719h60c0 16.542969-13.457031 30.011719-30 30.011719zm-95.730469-60 15-30h161.460938l15 30zm0 0" data-original="#000000" class="active-path" data-old_color="#6ecd0b" fill="#6ecd0b"/><path d="m256 0c-140.957031 0-256 115.050781-256 256 0 48.964844 13.804688 96.214844 40.003906 137.175781l-38.949218 98.296875c-2.210938 5.585938-.878907 11.949219 3.382812 16.175782 4.277344 4.242187 10.65625 5.5 16.203125 3.25l98.242187-39.855469c41.792969 26.820312 89.03125 40.957031 137.117188 40.957031 140.960938 0 256-115.050781 256-256 0-140.957031-115.050781-256-256-256zm0 482c-44.636719 0-88.53125-13.902344-126.949219-40.207031-4.15625-2.847657-9.460937-3.410157-14.113281-1.523438l-73.070312 29.644531 28.910156-72.964843c1.835937-4.636719 1.246094-9.882813-1.570313-14-25.648437-37.460938-39.207031-81.359375-39.207031-126.949219 0-124.617188 101.382812-226 226-226s226 101.382812 226 226-101.382812 226-226 226zm0 0" data-original="#000000" class="active-path" data-old_color="#6ecd0b" fill="#6ecd0b"/></g> </svg>
