<svg height="512pt" viewBox="0 0 512 512" width="512pt" xmlns="http://www.w3.org/2000/svg" xmlns:xlink="http://www.w3.org/1999/xlink"><linearGradient id="a" gradientUnits="userSpaceOnUse" x1="294.254" x2="401.9689" y1="193.6113" y2="301.3262"><stop offset="0" stop-color="#444"/><stop offset="1" stop-color="#292929"/></linearGradient><linearGradient id="b"><stop offset="0" stop-color="#ececf1"/><stop offset="1" stop-color="#cfcfd7"/></linearGradient><linearGradient id="c" gradientUnits="userSpaceOnUse" x1="146.4356" x2="333.8518" xlink:href="#b" y1="95.6383" y2="283.0545"/><linearGradient id="d" gradientUnits="userSpaceOnUse" x1="260.8372" x2="374.6966" xlink:href="#b" y1="128.3503" y2="242.2097"/><linearGradient id="e" gradientUnits="userSpaceOnUse" x1="187.8047" x2="290.8203" y1="331.5078" y2="434.5234"><stop offset="0" stop-color="#ff7816"/><stop offset="1" stop-color="#ff4b00"/></linearGradient><linearGradient id="f" gradientUnits="userSpaceOnUse" x1="133.6989" x2="329.2479" y1="48.7344" y2="244.2834"><stop offset="0" stop-color="#b9dd39"/><stop offset="1" stop-color="#81a713"/></linearGradient><linearGradient id="g" gradientUnits="userSpaceOnUse" x1="206.7813" x2="271.8438" y1="280" y2="345.0625"><stop offset="0" stop-color="#7e7e7e"/><stop offset="1" stop-color="#5a5a5a"/></linearGradient><path d="m512 256c0 141.386719-114.613281 256-256 256s-256-114.613281-256-256 114.613281-256 256-256 256 114.613281 256 256zm0 0" fill="#ffd400"/><path d="m446.066406 149.875v107.351562l-195.910156 21.6875v44.460938h-21.6875v-63.976562l10.84375-1.304688 185.066406-20.382812v-66.148438h-22.410156l-21.6875-10.195312 21.6875-11.492188zm0 0" fill="url(#a)"/><path d="m401.96875 171.5625v43.375h-326.035156v-43.375l16.265625-21.6875h298.273437zm0 0" fill="url(#c)"/><path d="m401.96875 171.5625v43.375h-162.65625v-65.0625h151.160156zm0 0" fill="url(#d)"/><path d="m206.78125 312.53125h65.0625v140.96875h-65.0625zm0 0" fill="url(#e)"/><path d="m401.96875 106.5v65.0625h-151.8125v43.375c0 8.023438-4.339844 14.964844-10.84375 18.652344-3.253906 1.949218-6.941406 3.035156-10.84375 3.035156-11.929688 0-21.6875-9.757812-21.6875-21.6875v-43.375h-43.375v65.0625c0 11.929688-9.761719 21.6875-21.6875 21.6875-11.929688 0-21.691406-9.757812-21.691406-21.6875v-65.0625h-44.09375v-65.0625zm0 0" fill="url(#f)"/><path d="m185.09375 301.6875h108.4375v21.6875h-108.4375zm0 0" fill="url(#g)"/></svg>