<?xml version="1.0" encoding="iso-8859-1"?>
<!-- Generator: Adobe Illustrator 19.0.0, SVG Export Plug-In . SVG Version: 6.00 Build 0)  -->
<svg version="1.1" id="Layer_1" xmlns="http://www.w3.org/2000/svg" xmlns:xlink="http://www.w3.org/1999/xlink" x="0px" y="0px"
	 viewBox="0 0 512.001 512.001" style="enable-background:new 0 0 512.001 512.001;" xml:space="preserve">
<path style="fill:#40D2BE;" d="M511.197,235.725c-4.629-58.603-29.341-115.917-74.167-160.743
	c-99.976-99.976-262.07-99.976-362.045,0s-99.976,262.07,0,362.045c32.533,32.533,71.646,54.469,113.052,65.829L511.197,235.725z"/>
<path style="fill:#02AF92;" d="M437.03,437.027c55.15-55.15,79.862-129.202,74.167-201.302l-38.749-38.749l-216.44,59.029
	L98.597,381.934v31.482l89.44,89.44C273.878,526.407,369.588,504.471,437.03,437.027z"/>
<path style="fill:#F63341;" d="M271.75,208.782L130.08,381.934c4.346,4.346,4.346,11.394,0,15.741
	c-4.347,4.346-11.394,4.346-15.741,0H98.597v15.741c13.041,13.041,34.183,13.041,47.223,0l165.282-165.281L271.75,208.782z"/>
<path style="fill:#F85C67;" d="M114.339,381.934c4.347-4.346,11.394-4.346,15.741,0l157.41-157.41l-23.611-23.611L98.598,366.193
	c-13.041,13.041-13.041,34.183,0,47.223l15.741-15.741C109.991,393.328,109.993,386.28,114.339,381.934z"/>
<polygon style="fill:#FDE59A;" points="315.038,39.566 208.785,145.818 220.591,196.976 330.779,55.307 "/>
<polygon style="fill:#FBD867;" points="330.779,55.307 204.85,181.235 236.332,212.717 346.52,71.048 "/>
<polygon style="fill:#FDE59A;" points="346.52,71.048 220.591,196.976 252.073,228.458 362.26,86.789 "/>
<polygon style="fill:#FBD867;" points="362.26,86.789 236.332,212.717 267.814,244.199 378.001,102.529 "/>
<polygon style="fill:#FDE59A;" points="378.001,102.529 252.073,228.458 283.556,259.94 393.742,118.27 "/>
<polygon style="fill:#F9BE02;" points="393.742,118.27 267.814,244.199 299.297,275.682 409.484,134.011 "/>
<polygon style="fill:#FBD867;" points="409.484,134.011 283.556,259.94 315.038,291.423 425.225,149.753 "/>
<polygon style="fill:#F9BE02;" points="425.225,149.753 299.297,275.682 330.779,307.164 440.966,165.494 "/>
<polygon style="fill:#FBD867;" points="440.966,165.494 315.038,291.423 346.52,322.905 456.707,181.235 "/>
<polygon style="fill:#F9BE02;" points="456.707,181.235 330.779,307.164 366.196,303.228 472.448,196.976 "/>
<path style="fill:#C92B31;" d="M256.009,240.264l-31.482,47.223l55.093,55.093c13.041,13.041,34.183,13.041,47.223,0
	L256.009,240.264z"/>
<path style="fill:#F63341;" d="M169.432,185.17c-13.041,13.041-13.041,34.183,0,47.223l55.093,55.093l39.352-39.352L169.432,185.17z
	"/>
<polygon style="fill:#7DDCD4;" points="279.62,232.394 244.202,236.329 248.138,263.876 326.843,342.582 350.455,318.969 "/>
<polygon style="fill:#FFFFFF;" points="193.044,161.559 169.432,185.17 248.138,263.876 279.62,232.394 "/>
<polygon style="fill:#40D2BE;" points="287.49,224.523 263.879,216.653 271.75,240.264 350.455,318.969 366.196,303.228 "/>
<rect x="229.133" y="137.384" transform="matrix(-0.7071 0.7071 -0.7071 -0.7071 546.6524 159.6428)" style="fill:#B1EAE5;" width="22.261" height="111.305"/>
<g>
</g>
<g>
</g>
<g>
</g>
<g>
</g>
<g>
</g>
<g>
</g>
<g>
</g>
<g>
</g>
<g>
</g>
<g>
</g>
<g>
</g>
<g>
</g>
<g>
</g>
<g>
</g>
<g>
</g>
</svg>
