<?xml version="1.0" encoding="iso-8859-1"?>
<!-- Generator: Adobe Illustrator 19.0.0, SVG Export Plug-In . SVG Version: 6.00 Build 0)  -->
<svg version="1.1" id="Layer_1" xmlns="http://www.w3.org/2000/svg" xmlns:xlink="http://www.w3.org/1999/xlink" x="0px" y="0px"
	 viewBox="0 0 512 512" style="enable-background:new 0 0 512 512;" xml:space="preserve">
<circle style="fill:#FECE66;" cx="256" cy="256" r="256"/>
<path style="fill:#F5B540;" d="M502.411,325.371L309.182,132.162c-0.033-0.066-0.096-0.132-0.165-0.198
	c-0.066-0.069-0.132-0.132-0.198-0.165c-2.048-1.982-4.691-2.973-7.366-2.973c-2.742,0-5.483,1.057-7.564,3.138
	c-2.081,2.081-3.138,4.823-3.138,7.564v42.05h-8.456h-14.567l-49.614-49.614c-2.081-2.081-4.823-3.138-7.564-3.138
	c-2.742,0-5.483,1.057-7.564,3.138c-2.081,2.081-3.138,4.823-3.138,7.564v42.05h-24.047c-3.928,0-7.829,1.519-10.802,4.492
	c-3.006,2.973-4.492,6.871-4.492,10.802c0,3.901,1.486,7.829,4.492,10.805l14.633,14.633v22.561v20.744
	c0,15.657,5.946,31.282,17.87,43.206l55.2,55.2c0.066,0.188,0.139,0.367,0.208,0.555c0.41,1.107,0.889,2.187,1.457,3.227
	c0.053,0.096,0.116,0.188,0.168,0.281c0.601,1.054,1.282,2.071,2.041,3.039c0.033,0.043,0.056,0.086,0.086,0.129l0.036,0.036
	c0.555,0.694,1.143,1.371,1.78,2.012c0.644,0.644,1.331,1.239,2.035,1.804l34.829,34.826h-96.322
	c-6.375,0-12.387,2.477-16.979,7.003c-4.525,4.525-7.003,10.537-7.003,16.982c0,6.375,2.477,12.387,7.036,16.946l60.809,60.809
	C247.23,511.888,251.6,512,256,512C373.334,512,472.156,433.033,502.411,325.371z"/>
<path style="fill:#343B43;" d="M332.387,212.143H179.613v53.469c0,15.641,5.962,31.288,17.894,43.21
	c11.935,11.935,27.585,17.91,43.216,17.91h30.555c15.641,0,31.282-5.976,43.216-17.91c11.931-11.921,17.894-27.569,17.894-43.21
	V212.143z"/>
<g>
	<path style="fill:#495057;" d="M240.723,312.204c-12.453,0-24.157-4.843-32.956-13.639c-8.796-8.797-13.642-20.5-13.642-32.953
		c0-4.641,3.762-8.403,8.403-8.403c4.641,0,8.403,3.762,8.403,8.403c0,7.964,3.098,15.446,8.721,21.068
		c5.622,5.619,13.107,8.717,21.071,8.717c4.641,0,8.403,3.762,8.403,8.403C249.126,308.442,245.364,312.204,240.723,312.204z"/>
	<path style="fill:#495057;" d="M271.277,326.732h-30.555v6.104c0,2.738,1.044,5.477,3.131,7.568
		c2.088,2.084,4.826,3.131,7.561,3.131h9.166c2.735,0,5.473-1.047,7.561-3.131c2.088-2.091,3.131-4.829,3.131-7.568v-6.104H271.277z
		"/>
	<path style="fill:#495057;" d="M351.48,196.859c0-3.904-1.486-7.815-4.469-10.795c-2.983-2.98-6.894-4.473-10.798-4.473H175.788
		c-3.908,0-7.819,1.496-10.802,4.473c-2.983,2.976-4.469,6.891-4.469,10.795l0,0c0,3.911,1.486,7.832,4.469,10.808
		c2.98,2.983,6.894,4.473,10.802,4.473h160.428c3.904,0,7.815-1.49,10.798-4.473C349.993,204.691,351.48,200.767,351.48,196.859
		L351.48,196.859z"/>
</g>
<g>
	<path style="fill:#FFFFFF;" d="M218.105,131.957c-2.088-2.084-4.826-3.131-7.561-3.131c-2.732,0-5.47,1.047-7.558,3.131
		c-2.091,2.091-3.135,4.829-3.135,7.568v42.063h21.388v-42.063C221.24,136.787,220.196,134.048,218.105,131.957z"/>
	<path style="fill:#FFFFFF;" d="M309.013,131.957c-2.088-2.084-4.819-3.131-7.558-3.131c-2.735,0-5.47,1.047-7.558,3.131
		c-2.094,2.091-3.135,4.829-3.135,7.568v42.063h21.388v-42.063C312.148,136.787,311.104,134.048,309.013,131.957z"/>
</g>
<path style="fill:#343B43;" d="M260.585,512h-9.166v-39.341c0-3.951-1.536-7.673-4.327-10.484
	c-2.821-2.781-6.537-4.331-10.442-4.331h-37.637c-6.359,0-12.371-2.484-16.939-6.993c-4.552-4.562-7.046-10.574-7.046-16.955
	c0-6.412,2.497-12.437,7.026-16.962c4.585-4.529,10.6-7.016,16.959-7.016h113.965c3.934,0,7.64-1.539,10.435-4.337
	c2.831-2.828,4.39-6.547,4.39-10.481c0-3.918-1.559-7.63-4.383-10.448c-2.801-2.798-6.507-4.337-10.441-4.337H275.4
	c-6.392,0-12.404-2.494-16.926-7.023c-4.555-4.585-7.059-10.607-7.059-16.962v-12.793h9.166v12.8c0,3.921,1.559,7.644,4.383,10.494
	c2.785,2.785,6.491,4.324,10.432,4.324h37.577c6.382,0,12.39,2.494,16.916,7.016c4.562,4.552,7.079,10.564,7.079,16.936
	c0,6.382-2.514,12.407-7.079,16.965c-4.525,4.525-10.531,7.019-16.916,7.019H199.013c-3.928,0-7.657,1.546-10.498,4.35
	c-2.781,2.775-4.321,6.497-4.321,10.458c0,3.934,1.543,7.647,4.34,10.458c2.818,2.778,6.544,4.324,10.475,4.324h37.637
	c6.326,0,12.331,2.487,16.913,7.006c4.539,4.568,7.023,10.587,7.023,16.975V512H260.585z"/>
<g>
</g>
<g>
</g>
<g>
</g>
<g>
</g>
<g>
</g>
<g>
</g>
<g>
</g>
<g>
</g>
<g>
</g>
<g>
</g>
<g>
</g>
<g>
</g>
<g>
</g>
<g>
</g>
<g>
</g>
</svg>
