<svg height="512" viewBox="0 0 512 512" width="512" xmlns="http://www.w3.org/2000/svg"><g id="Decline"><path d="m384 496h-336v-480h272l64 64z" fill="#ffeb99"/><path d="m320 16v64h64" fill="#cca400"/><g fill="#91cc04"><path d="m88 112h256v32h-256z"/><path d="m88 176h256v32h-256z"/><path d="m88 240h256v32h-256z"/></g><circle cx="384" cy="384" fill="#ff5023" r="88"/><path d="m112 464h-40a8 8 0 0 0 0 16h40a8 8 0 0 0 0-16z"/><path d="m144 464h-8a8 8 0 0 0 0 16h8a8 8 0 0 0 0-16z"/><path d="m88 152h256a8 8 0 0 0 8-8v-32a8 8 0 0 0 -8-8h-256a8 8 0 0 0 -8 8v32a8 8 0 0 0 8 8zm8-32h240v16h-240z"/><path d="m88 216h256a8 8 0 0 0 8-8v-32a8 8 0 0 0 -8-8h-256a8 8 0 0 0 -8 8v32a8 8 0 0 0 8 8zm8-32h240v16h-240z"/><path d="m88 280h256a8 8 0 0 0 8-8v-32a8 8 0 0 0 -8-8h-256a8 8 0 0 0 -8 8v32a8 8 0 0 0 8 8zm8-32h240v16h-240z"/><path d="m240 296h-152a8 8 0 0 0 0 16h152a8 8 0 0 0 0-16z"/><path d="m192 320h-104a8 8 0 0 0 0 16h104a8 8 0 0 0 0-16z"/><path d="m104 360a8 8 0 0 0 0-16h-16a8 8 0 0 0 0 16z"/><path d="m136 360a8 8 0 0 0 0-16h-8a8 8 0 0 0 0 16z"/><path d="m480 384a96.127 96.127 0 0 0 -88-95.664v-208.336a8 8 0 0 0 -2.343-5.657l-64-64a8 8 0 0 0 -5.657-2.343h-272a8 8 0 0 0 -8 8v480a8 8 0 0 0 8 8h336a8 8 0 0 0 8-8v-16.336a96.127 96.127 0 0 0 88-95.664zm-152-348.687 36.687 36.687h-36.687zm-272 452.687v-464h256v56a8 8 0 0 0 8 8h56v200.336a96 96 0 0 0 0 191.328v8.336zm328-24a80 80 0 1 1 80-80 80.091 80.091 0 0 1 -80 80z"/><path d="m429.657 338.343a8 8 0 0 0 -11.314 0l-34.343 34.343-34.343-34.343a8 8 0 0 0 -11.314 11.314l34.343 34.343-34.343 34.343a8 8 0 0 0 11.314 11.314l34.343-34.343 34.343 34.343a8 8 0 0 0 11.314-11.314l-34.343-34.343 34.343-34.343a8 8 0 0 0 0-11.314z"/></g></svg>