<svg height="480pt" viewBox="-96 0 480 480" width="480pt" xmlns="http://www.w3.org/2000/svg"><path d="m248 8h-208c-17.671875 0-32 14.328125-32 32v16h272v-16c0-17.671875-14.328125-32-32-32zm0 0" fill="#9bc9ff"/><path d="m8 440c0 17.671875 14.328125 32 32 32h208c17.671875 0 32-14.328125 32-32v-16h-272zm0 0" fill="#9bc9ff"/><path d="m72 168h16v16h-16zm0 0" fill="#9bc9ff"/><path d="m72 296h16v16h-16zm0 0" fill="#9bc9ff"/><path d="m200 168h16v16h-16zm0 0" fill="#9bc9ff"/><g fill="#1e81ce"><path d="m248 0h-208c-22.082031.0273438-39.9726562 17.917969-40 40v400c.0273438 22.082031 17.917969 39.972656 40 40h208c22.082031-.027344 39.972656-17.917969 40-40v-400c-.027344-22.082031-17.917969-39.9726562-40-40zm-232 64h256v352h-256zm24-48h208c13.253906 0 24 10.746094 24 24v8h-256v-8c0-13.253906 10.746094-24 24-24zm208 448h-208c-13.253906 0-24-10.746094-24-24v-8h256v8c0 13.253906-10.746094 24-24 24zm0 0"/><path d="m112 40h8c4.417969 0 8-3.582031 8-8s-3.582031-8-8-8h-8c-4.417969 0-8 3.582031-8 8s3.582031 8 8 8zm0 0"/><path d="m144 40h32c4.417969 0 8-3.582031 8-8s-3.582031-8-8-8h-32c-4.417969 0-8 3.582031-8 8s3.582031 8 8 8zm0 0"/><path d="m160 440h-32c-4.417969 0-8 3.582031-8 8s3.582031 8 8 8h32c4.417969 0 8-3.582031 8-8s-3.582031-8-8-8zm0 0"/><path d="m120 136h-80v80h80zm-16 64h-48v-48h48zm0 0"/><path d="m64 160h32v32h-32zm0 0"/><path d="m40 344h80v-80h-80zm16-64h48v48h-48zm0 0"/><path d="m64 288h32v32h-32zm0 0"/><path d="m168 136v80h80v-80zm64 64h-48v-48h48zm0 0"/><path d="m192 160h32v32h-32zm0 0"/><path d="m56 248h8v-16h-8v-8h-16v32h16zm0 0"/><path d="m128 136h32v16h-32zm0 0"/><path d="m136 160v32h24v-16h-8v-16zm0 0"/><path d="m232 288h-32v16h-8v-24h-48v-40h8v-40h-24v16h8v24h-16v-16h-48v32h16v-16h24v16h16v40h48v24h40v-16h32v-48h-16zm0 0"/><path d="m128 328h48v16h-48zm0 0"/><path d="m232 328h-48v16h64v-32h-16zm0 0"/><path d="m152 256h16v16h-16zm0 0"/><path d="m176 256h16v16h-16zm0 0"/><path d="m200 256h16v24h-16zm0 0"/><path d="m128 304h40v16h-40zm0 0"/><path d="m160 224v24h32v-16h-16v-8zm0 0"/><path d="m232 232h-16v-8h-16v24h48v-24h-16zm0 0"/></g></svg>