<?xml version="1.0" encoding="iso-8859-1"?>
<!-- Generator: Adobe Illustrator 19.0.0, SVG Export Plug-In . SVG Version: 6.00 Build 0)  -->
<svg version="1.1" id="Layer_1" xmlns="http://www.w3.org/2000/svg" xmlns:xlink="http://www.w3.org/1999/xlink" x="0px" y="0px"
	 viewBox="0 0 512 512" style="enable-background:new 0 0 512 512;" xml:space="preserve">
<polygon style="fill:#FF5023;" points="388.867,336.704 356.632,276.194 156.717,276.194 124.149,337.332 82.31,415.869 
	35.147,504.402 478.202,504.402 431.172,416.117 "/>
<polygon style="opacity:0.4;fill:#AB2300;enable-background:new    ;" points="431.172,416.117 388.867,336.704 356.632,276.194 
	305.999,276.194 318.34,299.361 360.645,378.775 407.675,467.059 55.041,467.059 35.147,504.402 478.202,504.402 "/>
<path style="fill:#FFCD00;" d="M420.794,185.622V67.962h28.366V341.82c0,9.099,4.895,17.495,12.813,21.977l22.982,13.009v13.284
	h-99.958v-13.284l22.982-13.009c7.918-4.482,12.813-12.878,12.813-21.977v-96.088L420.794,185.622L420.794,185.622z"/>
<path style="fill:#AB2300;" d="M91.082,124.577c90.204,90.204,239.528,90.204,329.732,0v-31.39
	c-90.204,90.204-239.528,90.204-329.732,0C91.082,93.186,91.082,124.577,91.082,124.577z"/>
<path style="fill:#FFCD00;" d="M62.839,142.709V67.43h28.366v274.39c0,9.099,4.895,17.495,12.813,21.977L127,376.805v13.284H27.044
	v-13.283l22.982-13.009c7.918-4.482,12.813-12.878,12.813-21.977V205.209C62.839,205.209,62.839,142.709,62.839,142.709z"/>
<g>
	<path style="fill:#CCA400;" d="M62.839,79.811c4.284,2.088,9.096,3.262,14.183,3.262c5.087,0,9.899-1.174,14.183-3.263V67.43
		H62.839V79.811z"/>
	<path style="fill:#CCA400;" d="M420.794,79.811c4.284,2.088,9.096,3.262,14.183,3.262s9.899-1.174,14.183-3.263V67.43h-28.366
		V79.811z"/>
</g>
<g>
	<path style="fill:#FFCD00;" d="M434.977,7.598c17.904,0,32.419,14.514,32.419,32.419s-14.514,32.419-32.419,32.419
		s-32.419-14.514-32.419-32.419c0-6.029,1.646-11.674,4.513-16.509C407.072,23.508,416.536,7.598,434.977,7.598z"/>
	<path style="fill:#FFCD00;" d="M77.022,7.598c17.904,0,32.419,14.514,32.419,32.419S94.926,72.435,77.022,72.435
		S44.603,57.921,44.603,40.017c0-4.389,0.872-8.574,2.453-12.391C47.056,27.626,53.208,7.598,77.022,7.598z"/>
</g>
<path d="M77.022,80.033c-22.065,0-40.017-17.952-40.017-40.017c0-5.294,1.019-10.441,3.029-15.297
	c1.604-3.878,6.049-5.72,9.926-4.115c3.877,1.605,5.72,6.049,4.115,9.926c-1.244,3.005-1.874,6.196-1.874,9.485
	c0,13.686,11.134,24.82,24.82,24.82s24.82-11.135,24.82-24.82s-11.134-24.82-24.82-24.82c-4.197,0-7.598-3.402-7.598-7.598
	S72.825,0,77.022,0c22.065,0,40.017,17.952,40.017,40.017S99.088,80.033,77.022,80.033z"/>
<path d="M127,397.686H27.043c-4.197,0-7.598-3.402-7.598-7.598v-13.283c0-2.737,1.473-5.264,3.856-6.612l22.983-13.009
	c5.525-3.127,8.959-9.015,8.959-15.365v-136.61c0-4.196,3.401-7.598,7.598-7.598c4.197,0,7.598,3.402,7.598,7.598V341.82
	c0,11.815-6.387,22.77-16.669,28.589l-19.127,10.827v1.254h84.761v-1.255l-19.126-10.827c-10.282-5.82-16.669-16.775-16.669-28.589
	V70.293c0-4.196,3.401-7.598,7.598-7.598s7.598,3.402,7.598,7.598V341.82c0,6.35,3.433,12.237,8.959,15.365l22.982,13.009
	c2.383,1.348,3.856,3.875,3.856,6.612v13.282C134.598,394.284,131.198,397.686,127,397.686z"/>
<path d="M62.839,150.307c-4.197,0-7.598-3.402-7.598-7.598V70.293c0-4.196,3.401-7.598,7.598-7.598s7.598,3.402,7.598,7.598v72.416
	C70.437,146.905,67.036,150.307,62.839,150.307z"/>
<path d="M434.977,80.033c-22.065,0-40.017-17.952-40.017-40.017c0-7.183,1.927-14.232,5.574-20.384
	c2.14-3.61,6.801-4.801,10.41-2.661s4.801,6.801,2.662,10.41c-2.258,3.808-3.451,8.178-3.451,12.635
	c0,13.686,11.134,24.82,24.82,24.82s24.82-11.135,24.82-24.82s-11.134-24.82-24.82-24.82c-4.197,0-7.598-3.402-7.598-7.598
	S430.78,0,434.977,0c22.065,0,40.017,17.952,40.017,40.017S457.043,80.033,434.977,80.033z"/>
<path d="M484.955,397.686h-99.958c-4.197,0-7.598-3.402-7.598-7.598v-13.283c0-2.737,1.473-5.264,3.856-6.612l22.983-13.009
	c5.525-3.127,8.959-9.015,8.959-15.365v-96.088c0-4.196,3.401-7.598,7.598-7.598s7.598,3.402,7.598,7.598v96.088
	c0,11.815-6.387,22.77-16.669,28.589l-19.127,10.827v1.254h84.761v-1.255l-19.126-10.827c-10.282-5.82-16.669-16.775-16.669-28.589
	V70.293c0-4.196,3.401-7.598,7.598-7.598c4.197,0,7.598,3.402,7.598,7.598V341.82c0,6.35,3.433,12.237,8.959,15.365l22.982,13.009
	c2.383,1.348,3.856,3.875,3.856,6.612v13.282C492.553,394.284,489.152,397.686,484.955,397.686z"/>
<path d="M420.794,193.22c-4.197,0-7.598-3.402-7.598-7.598V70.293c0-4.196,3.401-7.598,7.598-7.598s7.598,3.402,7.598,7.598v115.329
	C428.392,189.818,424.991,193.22,420.794,193.22z"/>
<path d="M478.201,512H35.147c-2.668,0-5.14-1.399-6.515-3.688c-1.373-2.288-1.446-5.128-0.19-7.484l47.163-88.533
	c1.972-3.702,6.574-5.108,10.279-3.133c3.703,1.972,5.106,6.575,3.133,10.279l-41.212,77.362h417.741l-41.079-77.114
	c-1.972-3.704-0.57-8.305,3.133-10.279c3.704-1.973,8.306-0.57,10.279,3.133l47.03,88.285c1.254,2.355,1.182,5.195-0.19,7.484
	C483.342,510.6,480.87,512,478.201,512z"/>
<path d="M124.141,344.932c-1.205,0-2.427-0.288-3.566-0.894c-3.703-1.972-5.106-6.575-3.133-10.279l32.569-61.137
	c1.32-2.478,3.898-4.026,6.706-4.026H356.63c2.807,0,5.386,1.548,6.706,4.026l32.234,60.509c1.972,3.704,0.57,8.305-3.133,10.279
	c-3.702,1.974-8.305,0.57-10.279-3.133l-30.09-56.483h-190.79l-30.424,57.112C129.487,343.47,126.86,344.932,124.141,344.932z"/>
<path d="M256.698,199.827c-63.727,0-123.639-24.816-168.701-69.878c-1.424-1.424-2.225-3.357-2.225-5.372v-31.39
	c0-3.074,1.851-5.843,4.691-7.02s6.106-0.527,8.281,1.647c87.098,87.098,228.813,87.098,315.911,0
	c2.174-2.173,5.44-2.823,8.281-1.647c2.84,1.176,4.691,3.947,4.691,7.02v31.389c0,2.015-0.8,3.948-2.225,5.372
	C380.337,175.011,320.425,199.827,256.698,199.827z M100.967,121.399c86.523,84.167,224.937,84.167,311.461,0v-10.777
	c-43.287,37.409-97.94,57.816-155.731,57.816s-112.444-20.408-155.731-57.816v10.777H100.967z"/>
<g>
</g>
<g>
</g>
<g>
</g>
<g>
</g>
<g>
</g>
<g>
</g>
<g>
</g>
<g>
</g>
<g>
</g>
<g>
</g>
<g>
</g>
<g>
</g>
<g>
</g>
<g>
</g>
<g>
</g>
</svg>
