<svg id="Layer_1" enable-background="new 0 0 256 256" height="512" viewBox="0 0 256 256" width="512" xmlns="http://www.w3.org/2000/svg">
    <path d="m183.75 231h-149c-4.418 0-8-3.582-8-8v-207c0-4.418 3.582-8 8-8h149c4.418 0 8 3.582 8 8v207c0 4.418-3.582 8-8 8z" fill="#e0ebfc"/>
    <path d="m96.461 140.249h-42c-3.314 0-6-2.686-6-6v-42c0-3.314 2.686-6 6-6h42c3.314 0 6 2.686 6 6v42c0 3.313-2.687 6-6 6z" fill="#4671c6"/>
    <path d="m164.039 58.993h-109.578c-3.314 0-6-2.686-6-6v-18.589c0-3.314 2.686-6 6-6h109.579c3.314 0 6 2.686 6 6v18.589c-.001 3.314-2.687 6-6.001 6z" fill="#a4c9ff"/>
    <path d="m165.394 95.595h-51.498c-2.566 0-4.646-2.08-4.646-4.646 0-2.566 2.08-4.646 4.646-4.646h51.498c2.566 0 4.646 2.08 4.646 4.646-.001 2.566-2.081 4.646-4.646 4.646z" fill="#a4c9ff"/>
    <path d="m183.75 233h-149c-5.514 0-10-4.486-10-10v-207c0-5.514 4.486-10 10-10h149c5.514 0 10 4.486 10 10v207c0 5.514-4.486 10-10 10zm-149-223c-3.309 0-6 2.691-6 6v207c0 3.309 2.691 6 6 6h149c3.309 0 6-2.691 6-6v-207c0-3.309-2.691-6-6-6z" fill="#3762cc"/>
    <g fill="#a4c9ff">
        <path d="m165.394 117.895h-51.498c-2.566 0-4.646-2.08-4.646-4.646 0-2.566 2.08-4.646 4.646-4.646h51.498c2.566 0 4.646 2.08 4.646 4.646-.001 2.566-2.081 4.646-4.646 4.646z"/>
        <path d="m165.394 140.195h-51.498c-2.566 0-4.646-2.08-4.646-4.646 0-2.566 2.08-4.646 4.646-4.646h51.498c2.566 0 4.646 2.08 4.646 4.646-.001 2.566-2.081 4.646-4.646 4.646z"/>
        <path d="m165.548 162.495h-112.596c-2.481 0-4.491-2.011-4.491-4.491v-.309c0-2.481 2.011-4.491 4.491-4.491h112.596c2.481 0 4.491 2.011 4.491 4.491v.309c0 2.48-2.01 4.491-4.491 4.491z"/>
        <path d="m165.548 184.795h-112.596c-2.481 0-4.491-2.011-4.491-4.491v-.309c0-2.481 2.011-4.491 4.491-4.491h112.596c2.481 0 4.491 2.011 4.491 4.491v.309c0 2.48-2.01 4.491-4.491 4.491z"/>
        <path d="m165.548 207.095h-112.596c-2.481 0-4.491-2.011-4.491-4.491v-.309c0-2.481 2.011-4.491 4.491-4.491h112.596c2.481 0 4.491 2.011 4.491 4.491v.309c0 2.48-2.01 4.491-4.491 4.491z"/>
    </g>
    <circle cx="181.559" cy="200.309" fill="#6bdddd" r="47.691"/>
    <circle cx="181.559" cy="200.309" fill="#4671c6" r="34.974"/>
    <path d="m181.559 250c-27.4 0-49.691-22.291-49.691-49.691s22.291-49.691 49.691-49.691 49.691 22.291 49.691 49.691-22.291 49.691-49.691 49.691zm0-95.383c-25.194 0-45.691 20.497-45.691 45.691s20.496 45.692 45.691 45.692 45.691-20.497 45.691-45.691-20.497-45.692-45.691-45.692z" fill="#3762cc"/>
    <path d="m173.648 221.932c-.088 0-.175-.001-.263-.004-2.581-.078-4.971-1.291-6.557-3.329l-11.706-15.036c-1.798-2.309-1.384-5.639.926-7.436 2.308-1.799 5.641-1.383 7.436.926l10.251 13.168 26.1-29.687c1.932-2.199 5.279-2.413 7.479-.481 2.197 1.932 2.413 5.28.48 7.478l-27.664 31.467c-1.647 1.873-3.998 2.934-6.482 2.934z" fill="#ffea92"/>
    <path d="m73.328 130.561c-4.696-.709-8.098-3.617-8.484-8.369-.04-.495.361-.917.858-.917h3.716c.424 0 .776.312.847.731.281 1.653 1.109 2.946 2.547 3.628.574.272 1.239-.137 1.239-.772v-8.974c0-.385-.256-.721-.626-.826-4.222-1.194-8.617-2.753-8.617-9.348 0-5.254 3.457-8.939 8.526-9.727.414-.064.718-.425.718-.844v-2.414c0-.474.384-.858.858-.858h1.145c.474 0 .858.384.858.858v2.362c0 .419.303.782.717.845 4.373.66 7.396 3.384 8.071 8.067.074.515-.333.976-.853.976h-3.68c-.411 0-.752-.294-.842-.695-.275-1.234-.98-2.353-2.07-3.068-.577-.378-1.344.02-1.344.71v8.63c0 .388.261.727.635.829 4.216 1.147 8.566 2.664 8.566 9.255 0 4.567-2.996 8.998-8.483 9.873-.414.066-.717.425-.717.844v2.416c0 .474-.384.858-.858.858h-1.145c-.474 0-.858-.384-.858-.858v-2.364c-.001-.425-.307-.785-.724-.848zm.723-21.466v-7.547c0-.581-.571-1.011-1.118-.819-1.814.637-3.019 2.181-3.019 4.69 0 2.322 1.171 3.6 2.893 4.445.573.28 1.244-.131 1.244-.769zm2.862 8.254v7.537c0 .623.642 1.033 1.213.784 1.881-.818 2.925-2.607 2.925-4.739 0-2.285-1.174-3.522-2.899-4.354-.573-.275-1.239.136-1.239.772z" fill="#6bdddd"/>
</svg>