<svg height="511pt" viewBox="-4 0 511 511.99809" width="511pt" xmlns="http://www.w3.org/2000/svg"><path d="m341.832031 277.332031c0 58.910157-47.757812 106.667969-106.667969 106.667969-58.910156 0-106.664062-47.757812-106.664062-106.667969 0-58.910156 47.753906-106.667969 106.664062-106.667969 58.910157 0 106.667969 47.757813 106.667969 106.667969zm0 0" fill="#4caf50"/><path d="m192.5 117.332031c-2.730469 0-5.460938-1.046875-7.554688-3.117187-4.160156-4.15625-4.160156-10.921875 0-15.082032l44.140626-44.117187-53.164063-35.476563c-4.90625-3.261718-6.226563-9.898437-2.964844-14.785156 3.265625-4.90625 9.855469-6.226562 14.785157-2.964844l64 42.667969c2.667968 1.769531 4.394531 4.652344 4.691406 7.828125.320312 3.160156-.808594 6.335938-3.070313 8.578125l-53.332031 53.332031c-2.070312 2.089844-4.800781 3.136719-7.53125 3.136719zm0 0"/><path d="m30.921875 467.519531c-.234375 0-.449219 0-.707031-.023437-5.863282-.382813-10.324219-5.460938-9.960938-11.328125l4.949219-76.757813c.214844-3.175781 1.835937-6.121094 4.4375-7.976562 2.601563-1.878906 5.910156-2.410156 8.980469-1.644532l72.855468 19.519532c5.695313 1.539062 9.066407 7.382812 7.550782 13.078125-1.515625 5.695312-7.359375 8.980469-13.054688 7.550781l-60.289062-16.167969-4.117188 63.765625c-.382812 5.652344-5.078125 9.984375-10.644531 9.984375zm0 0"/><path d="m423.835938 409.234375c-1.492188 0-3.007813-.320313-4.394532-.957031-2.921875-1.324219-5.074218-3.863282-5.90625-6.933594l-19.519531-72.855469c-1.515625-5.71875 1.855469-11.539062 7.550781-13.078125 5.714844-1.363281 11.5625 1.878906 13.054688 7.554688l16.148437 60.285156 57.28125-28.308594c5.3125-2.601562 11.691407-.425781 14.292969 4.84375 2.625 5.289063.449219 11.691406-4.84375 14.292969l-68.949219 34.089844c-1.46875.683593-3.089843 1.066406-4.714843 1.066406zm0 0"/><path d="m235.164062 512c-88.0625 0-167.933593-48.75-208.46875-127.210938-2.6875-5.226562-.640624-11.671874 4.585938-14.378906 5.226562-2.730468 11.671875-.640625 14.378906 4.585938 36.84375 71.359375 109.460938 115.667968 189.503906 115.667968 50.667969 0 99.839844-18.21875 138.476563-51.261718 4.457031-3.839844 11.179687-3.285156 15.039063 1.171875 3.839843 4.480469 3.308593 11.199219-1.171876 15.039062-42.476562 36.375-96.578124 56.386719-152.34375 56.386719zm0 0"/><path d="m15.070312 328.851562c-5.035156 0-9.535156-3.585937-10.476562-8.726562-2.75-14.847656-4.09375-28.863281-4.09375-42.792969 0-129.386719 105.277344-234.667969 234.664062-234.667969 2.5625 0 5.078126.171876 7.574219.34375l3.585938.234376c5.886719.277343 10.429687 5.246093 10.152343 11.132812-.277343 5.867188-5.523437 10.648438-11.15625 10.15625l-4.011718-.234375c-2.027344-.148437-4.050782-.296875-6.144532-.296875-117.628906 0-213.332031 95.699219-213.332031 213.332031 0 12.628907 1.214844 25.34375 3.710938 38.910157 1.066406 5.78125-2.75 11.351562-8.554688 12.4375-.636719.109374-1.300781.171874-1.917969.171874zm0 0"/><path d="m423.476562 409.042969c-1.984374 0-3.992187-.53125-5.761718-1.683594-4.949219-3.203125-6.378906-9.792969-3.199219-14.742187 22.230469-34.558594 34.003906-74.410157 34.003906-115.265626 0-90.066406-57.152343-170.816406-142.226562-200.917968-5.546875-1.980469-8.449219-8.0625-6.488281-13.628906 1.964843-5.546876 8.023437-8.449219 13.613281-6.507813 93.566406 33.109375 156.414062 121.941406 156.414062 221.035156 0 44.949219-12.925781 88.808594-37.398437 126.804688-2.023438 3.179687-5.460938 4.90625-8.957032 4.90625zm0 0"/><path d="m235.164062 384c-58.8125 0-106.664062-47.851562-106.664062-106.667969 0-58.816406 47.851562-106.667969 106.664062-106.667969 58.816407 0 106.667969 47.851563 106.667969 106.667969 0 58.816407-47.851562 106.667969-106.667969 106.667969zm0-192c-47.058593 0-85.332031 38.269531-85.332031 85.332031s38.273438 85.332031 85.332031 85.332031c47.0625 0 85.335938-38.269531 85.335938-85.332031s-38.273438-85.332031-85.335938-85.332031zm0 0"/></svg>