<?xml version="1.0" encoding="iso-8859-1"?>
<!-- Generator: Adobe Illustrator 19.0.0, SVG Export Plug-In . SVG Version: 6.00 Build 0)  -->
<svg version="1.1" id="Capa_1" xmlns="http://www.w3.org/2000/svg" xmlns:xlink="http://www.w3.org/1999/xlink" x="0px" y="0px"
	 viewBox="0 0 512 512" style="enable-background:new 0 0 512 512;" xml:space="preserve">
<circle style="fill:#64E1DC;" cx="256" cy="256" r="256"/>
<path style="fill:#00C8C8;" d="M512,256c0-20.708-2.476-40.834-7.117-60.117L377,68l-22.534,47.088L307.378,68l-12.893,56.729
	L237.756,68l-2.003,67.619L168.134,68L135,444l60.883,60.883C215.166,509.524,235.292,512,256,512C397.385,512,512,397.385,512,256z
	"/>
<g>
	<rect x="343.87" y="68" style="fill:#EADFD6;" width="33.13" height="90"/>
	<rect x="274.24" y="68" style="fill:#EADFD6;" width="33.13" height="90"/>
</g>
<g>
	<rect x="204.62" y="68" style="fill:#FFFFFF;" width="33.13" height="90"/>
	<rect x="135" y="68" style="fill:#FFFFFF;" width="33.13" height="90"/>
</g>
<g>
	<rect x="343.87" y="354" style="fill:#EADFD6;" width="33.13" height="90"/>
	<rect x="274.24" y="354" style="fill:#EADFD6;" width="33.13" height="90"/>
</g>
<g>
	<rect x="204.62" y="354" style="fill:#FFFFFF;" width="33.13" height="90"/>
	<rect x="135" y="354" style="fill:#FFFFFF;" width="33.13" height="90"/>
</g>
<rect x="135" y="102" style="fill:#FFBC36;" width="242" height="308"/>
<rect x="255.57" y="102" style="fill:#E89F00;" width="121.43" height="308"/>
<polygon style="fill:#FFE45C;" points="135,377.514 377,305.444 377,243.444 135,315.514 "/>
<polygon style="fill:#FFBC36;" points="377,243.444 255.571,279.606 255.571,341.606 377,305.444 "/>
<polygon style="fill:#FFE45C;" points="135,278.514 377,206.444 377,144.444 135,216.514 "/>
<polygon style="fill:#FFBC36;" points="377,144.444 255.571,180.606 255.571,242.606 377,206.444 "/>
<polygon style="fill:#FFE45C;" points="135,179.514 377,107.444 377,102 187.093,102 135,117.514 "/>
<polygon style="fill:#FFBC36;" points="377,102 255.571,102 255.571,143.606 377,107.444 "/>
<polygon style="fill:#FFE45C;" points="377,404.444 377,342.444 150.157,410 358.343,410 "/>
<polygon style="fill:#FFBC36;" points="255.571,378.606 255.571,410 358.343,410 377,404.444 377,342.444 "/>
<g>
</g>
<g>
</g>
<g>
</g>
<g>
</g>
<g>
</g>
<g>
</g>
<g>
</g>
<g>
</g>
<g>
</g>
<g>
</g>
<g>
</g>
<g>
</g>
<g>
</g>
<g>
</g>
<g>
</g>
</svg>
