<?xml version="1.0" encoding="iso-8859-1"?>
<!-- Generator: Adobe Illustrator 19.0.0, SVG Export Plug-In . SVG Version: 6.00 Build 0)  -->
<svg version="1.1" id="Capa_1" xmlns="http://www.w3.org/2000/svg" xmlns:xlink="http://www.w3.org/1999/xlink" x="0px" y="0px"
	 viewBox="0 0 512 512" style="enable-background:new 0 0 512 512;" xml:space="preserve">
<circle style="fill:#FFE67D;" cx="256" cy="256" r="256"/>
<path style="fill:#F7D139;" d="M512,256c0-10.914-0.688-21.666-2.013-32.221L372.309,86.101l-274.28,119l113.757,113.757
	L95.544,371.302l139.873,139.873C242.208,511.715,249.07,512,256,512C397.385,512,512,397.385,512,256z"/>
<rect x="133.34" y="181.69" style="fill:#FFFFFF;" width="275.01" height="196.8"/>
<rect x="255.57" y="181.69" style="fill:#E1F1FA;" width="152.79" height="196.8"/>
<polygon style="fill:#F24500;" points="169.395,86.101 98.029,205.101 443.675,205.101 372.309,86.101 "/>
<polygon style="fill:#D13400;" points="372.309,86.101 255.571,86.101 255.571,205.101 443.675,205.101 "/>
<rect x="219.93" y="246.58" style="fill:#0053BF;" width="101.85" height="131.91"/>
<rect x="228.077" y="370.247" transform="matrix(-0.7071 -0.7071 0.7071 -0.7071 195.2132 884.3519)" style="fill:#555A66;" width="105.369" height="62.998"/>
<rect x="253.768" y="359.961" transform="matrix(-0.7071 0.7071 -0.7071 -0.7071 752.4862 513.6012)" style="fill:#414952;" width="32.21" height="105.369"/>
<circle style="fill:#91CDFF;" cx="181.28" cy="302.26" r="89.58"/>
<path style="fill:#78BEFF;" d="M118.452,238.428c-0.17,0.167-0.347,0.322-0.516,0.491c-34.982,34.982-34.982,91.698,0,126.68
	s91.698,34.982,126.68,0c0.169-0.169,0.323-0.346,0.491-0.516L118.452,238.428z"/>
<path style="fill:#414952;" d="M181.275,412.283c-28.188,0-56.376-10.729-77.835-32.188
	c-42.919-42.919-42.919-112.753-0.001-155.671c42.92-42.917,112.754-42.919,155.672,0h0.001c42.918,42.919,42.918,112.752,0,155.671
	C237.652,401.553,209.464,412.283,181.275,412.283z M181.276,233.215c-17.689,0-35.379,6.733-48.846,20.199
	c-26.932,26.933-26.932,70.756,0.001,97.688c26.934,26.933,70.756,26.931,97.689,0c26.932-26.933,26.932-70.756-0.001-97.688
	C216.654,239.948,198.965,233.215,181.276,233.215z"/>
<path style="fill:#333940;" d="M230.611,350.587c-0.167,0.17-0.322,0.347-0.49,0.516c-26.934,26.932-70.756,26.933-97.689,0
	s-26.933-70.756-0.001-97.688c0.169-0.169,0.346-0.324,0.517-0.491l-28.998-28.998c-0.169,0.167-0.342,0.329-0.51,0.497
	c-42.918,42.919-42.918,112.752,0.001,155.671c21.459,21.459,49.647,32.188,77.835,32.188s56.377-10.729,77.837-32.188
	c0.168-0.168,0.33-0.34,0.497-0.509L230.611,350.587z"/>
<g>
</g>
<g>
</g>
<g>
</g>
<g>
</g>
<g>
</g>
<g>
</g>
<g>
</g>
<g>
</g>
<g>
</g>
<g>
</g>
<g>
</g>
<g>
</g>
<g>
</g>
<g>
</g>
<g>
</g>
</svg>
