<?xml version="1.0" encoding="iso-8859-1"?>
<!-- Generator: Adobe Illustrator 19.0.0, SVG Export Plug-In . SVG Version: 6.00 Build 0)  -->
<svg version="1.1" id="Capa_1" xmlns="http://www.w3.org/2000/svg" xmlns:xlink="http://www.w3.org/1999/xlink" x="0px" y="0px"
	 viewBox="0 0 512 512" style="enable-background:new 0 0 512 512;" xml:space="preserve">
<polygon style="fill:#FFD69B;" points="235.984,243.265 357.079,223.249 357.079,148.833 235.984,148.833 "/>
<polygon style="fill:#FFEFD9;" points="154.921,148.833 154.921,223.249 256,243.265 256,148.833 "/>
<line style="fill:none;stroke:#000000;stroke-width:30;stroke-miterlimit:10;" x1="256" y1="223.25" x2="256" y2="512"/>
<polygon style="fill:#D40000;" points="364.672,85.047 235.984,65.031 256,148.833 378.341,148.833 "/>
<polygon style="fill:#FF0F0F;" points="147.328,85.047 133.659,148.833 256,148.833 256,65.031 "/>
<polygon style="fill:#FFB242;" points="428.957,133.833 256,133.833 245.992,148.833 256,163.833 428.957,163.833 "/>
<rect x="83.04" y="133.83" style="fill:#FFD69B;" width="172.96" height="30"/>
<polygon style="fill:#FFB242;" points="346.448,0 287.893,0 256,21.262 256,21.261 235.984,49.667 256,85.047 364.672,85.047 "/>
<polygon style="fill:#FFD69B;" points="224.108,0 165.552,0 147.328,85.047 256,85.047 256,21.261 "/>
<polygon style="fill:#FFB242;" points="512,350.82 381.117,287.034 391.748,223.249 256,223.249 235.984,351.667 256,512 
	401.322,512 416.322,501.992 431.322,512 512,512 "/>
<polygon style="fill:#FFD69B;" points="120.252,223.249 130.883,287.034 0,350.82 0,512 80.678,512 95.678,501.992 110.678,512 
	256,512 256,223.249 "/>
<rect x="80.68" y="414.27" style="fill:#FFB242;" width="30" height="97.73"/>
<rect x="401.32" y="414.27" style="fill:#FF8E00;" width="30" height="97.73"/>
<g>
</g>
<g>
</g>
<g>
</g>
<g>
</g>
<g>
</g>
<g>
</g>
<g>
</g>
<g>
</g>
<g>
</g>
<g>
</g>
<g>
</g>
<g>
</g>
<g>
</g>
<g>
</g>
<g>
</g>
</svg>
