<?xml version="1.0" encoding="iso-8859-1"?>
<!-- Generator: Adobe Illustrator 19.0.0, SVG Export Plug-In . SVG Version: 6.00 Build 0)  -->
<svg version="1.1" id="Capa_1" xmlns="http://www.w3.org/2000/svg" xmlns:xlink="http://www.w3.org/1999/xlink" x="0px" y="0px"
	 viewBox="0 0 512 512" style="enable-background:new 0 0 512 512;" xml:space="preserve">
<circle style="fill:#FCD748;" cx="256" cy="256" r="256"/>
<path style="fill:#FABF40;" d="M511.719,267.803L391.77,147.854L48.233,331.436l178.939,178.939
	C236.637,511.436,246.252,512,256,512C393.428,512,505.55,403.707,511.719,267.803z"/>
<polygon style="fill:#FFFFFF;" points="424.849,252.111 386.827,191.89 328.788,191.89 328.788,331.436 454.752,331.436 
	454.752,265.153 "/>
<polygon style="fill:#68B6F3;" points="328.788,207.77 378.563,207.77 405.422,252.191 330.354,252.191 "/>
<circle style="fill:#303030;" cx="396.1" cy="334.53" r="36.752"/>
<circle style="fill:#595959;" cx="396.1" cy="334.53" r="16.722"/>
<polygon style="fill:#2FA69A;" points="391.77,147.854 117.204,147.854 69.339,331.436 338.274,331.436 338.274,178.845 
	391.77,178.845 "/>
<g>
	<polygon style="fill:#12887A;" points="271,147.854 271,331.436 338.274,331.436 338.274,178.845 391.77,178.845 391.77,147.854 	
		"/>
	<polygon style="fill:#12887A;" points="89.032,255.905 69.339,331.436 338.274,331.436 338.274,255.905 	"/>
</g>
<rect x="271" y="255.91" style="fill:#0F6D5D;" width="67.27" height="75.53"/>
<polygon style="fill:#12887A;" points="89.555,331.436 137.419,147.854 96.097,147.854 48.233,331.436 "/>
<polygon style="fill:#0F6D5D;" points="67.926,255.905 48.233,331.436 89.555,331.436 109.247,255.905 "/>
<circle style="fill:#595959;" cx="118.77" cy="334.53" r="36.752"/>
<circle style="fill:#969696;" cx="118.77" cy="334.53" r="16.722"/>
<circle style="fill:#595959;" cx="209" cy="334.53" r="36.752"/>
<circle style="fill:#969696;" cx="209" cy="334.53" r="16.722"/>
<g>
</g>
<g>
</g>
<g>
</g>
<g>
</g>
<g>
</g>
<g>
</g>
<g>
</g>
<g>
</g>
<g>
</g>
<g>
</g>
<g>
</g>
<g>
</g>
<g>
</g>
<g>
</g>
<g>
</g>
</svg>
