<?xml version="1.0"?>
<svg xmlns="http://www.w3.org/2000/svg" xmlns:xlink="http://www.w3.org/1999/xlink" xmlns:svgjs="http://svgjs.com/svgjs" version="1.1" width="512" height="512" x="0" y="0" viewBox="0 0 64 64" style="enable-background:new 0 0 512 512" xml:space="preserve" class=""><g><g xmlns="http://www.w3.org/2000/svg" id="Calendar"><path d="M57,8H52V6a4,4,0,0,0-8,0V8H20V6a4,4,0,0,0-8,0V8H7a5,5,0,0,0-5,5V53a5,5,0,0,0,5,5H35a1,1,0,0,0,0-2H7a3.009,3.009,0,0,1-3-3V22H60V38a1,1,0,0,0,2,0V13A5,5,0,0,0,57,8ZM46,6a2,2,0,0,1,4,0v6a2,2,0,0,1-4,0ZM14,6a2,2,0,0,1,4,0v6a2,2,0,0,1-4,0ZM60,20H4V13a3.009,3.009,0,0,1,3-3h5v2a4,4,0,0,0,8,0V10H44v2a4,4,0,0,0,8,0V10h5a3.009,3.009,0,0,1,3,3Z" fill="#5dbd77" data-original="#000000" style="" class=""/><path d="M58,56H54a1,1,0,0,0,0,2h1.307a11,11,0,0,1-16.39-13.4,1,1,0,0,0-1.834-.8A13,13,0,0,0,57,59.235V61a1,1,0,0,0,2,0V57A1,1,0,0,0,58,56Z" fill="#5dbd77" data-original="#000000" style="" class=""/><path d="M41,38.765V37a1,1,0,0,0-2,0v4a1,1,0,0,0,1,1h4a1,1,0,0,0,0-2H42.693A11,11,0,0,1,59,53.583a1,1,0,0,0,1.818.834A13,13,0,0,0,41,38.765Z" fill="#5dbd77" data-original="#000000" style="" class=""/><path d="M30,29a2,2,0,0,0-2-2H24a2,2,0,0,0-2,2v3a2,2,0,0,0,2,2h4a2,2,0,0,0,2-2Zm-6,3V29h4v3Z" fill="#5dbd77" data-original="#000000" style="" class=""/><path d="M42,32V29a2,2,0,0,0-2-2H36a2,2,0,0,0-2,2v3a2,2,0,0,0,2,2h4A2,2,0,0,0,42,32Zm-6-3h4v3H36Z" fill="#5dbd77" data-original="#000000" style="" class=""/><path d="M18,29a2,2,0,0,0-2-2H12a2,2,0,0,0-2,2v3a2,2,0,0,0,2,2h4a2,2,0,0,0,2-2Zm-6,3V29h4v3Z" fill="#5dbd77" data-original="#000000" style="" class=""/><path d="M52,34a2,2,0,0,0,2-2V29a2,2,0,0,0-2-2H48a2,2,0,0,0-2,2v3a2,2,0,0,0,2,2Zm-4-5h4v3H48Z" fill="#5dbd77" data-original="#000000" style="" class=""/><path d="M30,38a2,2,0,0,0-2-2H24a2,2,0,0,0-2,2v3a2,2,0,0,0,2,2h4a2,2,0,0,0,2-2Zm-6,3V38h4v3Z" fill="#5dbd77" data-original="#000000" style="" class=""/><path d="M18,38a2,2,0,0,0-2-2H12a2,2,0,0,0-2,2v3a2,2,0,0,0,2,2h4a2,2,0,0,0,2-2Zm-6,3V38h4v3Z" fill="#5dbd77" data-original="#000000" style="" class=""/><path d="M28,45H24a2,2,0,0,0-2,2v3a2,2,0,0,0,2,2h4a2,2,0,0,0,2-2V47A2,2,0,0,0,28,45Zm-4,5V47h4v3Z" fill="#5dbd77" data-original="#000000" style="" class=""/><path d="M16,45H12a2,2,0,0,0-2,2v3a2,2,0,0,0,2,2h4a2,2,0,0,0,2-2V47A2,2,0,0,0,16,45Zm-4,5V47h4v3Z" fill="#5dbd77" data-original="#000000" style="" class=""/><path d="M49,52c-1.221,0-2-.592-2-1a1,1,0,0,0-2,0c0,1.421,1.259,2.571,3,2.9V55a1,1,0,0,0,2,0V53.9c1.741-.327,3-1.477,3-2.9,0-1.682-1.757-3-4-3-1.221,0-2-.592-2-1s.779-1,2-1,2,.592,2,1a1,1,0,0,0,2,0c0-1.421-1.259-2.571-3-2.9V43a1,1,0,0,0-2,0v1.1c-1.741.327-3,1.477-3,2.9,0,1.682,1.757,3,4,3,1.221,0,2,.592,2,1S50.221,52,49,52Z" fill="#5dbd77" data-original="#000000" style="" class=""/></g></g></svg>
