<?xml version="1.0" encoding="utf-8"?>
<svg version="1.1" id="Layer_1" xmlns="http://www.w3.org/2000/svg" xmlns:xlink="http://www.w3.org/1999/xlink" x="0px" y="0px"
	 viewBox="0 0 67 60" style="enable-background:new 0 0 67 60;" xml:space="preserve">
<style type="text/css">
	.st0{fill:#FF0000;}
</style>
<symbol  id="Alert" viewBox="-33.6 -30 67.2 60">
	<path class="st0" d="M32.2-19.7L6,25.7C4.3,28.6,2.2,30,0,30s-4.3-1.4-6-4.3l-26.2-45.4c-3.3-5.7-0.6-10.3,6-10.3h52.4
		C32.8-30,35.5-25.4,32.2-19.7z M28.6-24.5c-0.1-0.1-0.7-0.5-2.3-0.5h-52.4c-1.6,0-2.3,0.4-2.3,0.5c-0.1,0.1-0.1,0.9,0.7,2.3
		l26.2,45.4C-0.8,24.6-0.1,25,0,25c0.1,0,0.8-0.4,1.6-1.8l26.2-45.4C28.6-23.6,28.6-24.3,28.6-24.5z"/>
	<path class="st0" d="M0-11.6c-2.1,0-3.7-1.7-3.7-3.7s1.7-3.7,3.7-3.7c2.1,0,3.7,1.7,3.7,3.7S2.1-11.6,0-11.6z"/>
	<rect x="-3.4" y="-8.8" class="st0" width="6.8" height="15.9"/>
</symbol>
<use xlink:href="#Alert"  width="67.2" height="60" id="XMLID_1_" x="-33.6" y="-30" transform="matrix(0.9976 0 0 -1 33.5 30)" style="overflow:visible;"/>
</svg>
