<svg height="512pt" viewBox="0 0 512 512" width="512pt" xmlns="http://www.w3.org/2000/svg"><path d="m512 256c0 141.386719-114.613281 256-256 256s-256-114.613281-256-256 114.613281-256 256-256 256 114.613281 256 256zm0 0" fill="#40deed"/><path d="m331.386719 104.148438-150.773438 303.703124 102.695313 102.699219c119.570312-12.683593 214.558594-107.671875 227.242187-227.242187l-81.417969-81.84375zm0 0" fill="#1eb8d1"/><path d="m331.386719 104.148438h-20.460938c-11.953125-16.386719-32.089843-27.148438-54.925781-27.148438s-42.972656 10.761719-54.925781 27.148438h-20.460938v303.703124h20.460938c11.953125 16.386719 32.089843 27.148438 54.925781 27.148438s42.972656-10.761719 54.925781-27.148438h20.460938zm0 0" fill="#fff"/><path d="m201.074219 104.148438h-20.460938v303.703124h20.460938c11.917969 16.339844 31.980469 27.085938 54.734375 27.144532v-357.992188c-22.753906.058594-42.816406 10.804688-54.734375 27.144532zm0 0" fill="#fff"/><path d="m310.925781 104.148438c-11.953125-16.386719-32.089843-27.148438-54.925781-27.148438-.0625 0-.128906.003906-.191406.003906v357.992188c.066406 0 .128906.003906.191406.003906 22.835938 0 42.972656-10.761719 54.925781-27.148438h20.460938v-303.703124zm0 0" fill="#e9edf5"/><path d="m406.449219 256h-162.03125c-17.664063 0-31.984375-14.320312-31.984375-31.984375s14.320312-31.984375 31.984375-31.984375h162.03125c17.664062 0 31.984375 14.320312 31.984375 31.984375s-14.320313 31.984375-31.984375 31.984375zm0 0" fill="#966442"/><path d="m406.449219 192.03125h-150.640625v63.96875h150.640625c17.664062 0 31.984375-14.320312 31.984375-31.984375s-14.320313-31.984375-31.984375-31.984375zm0 0" fill="#66402d"/><path d="m218.246094 135.332031c0 5.15625-4.175782 9.332031-9.332032 9.332031-5.152343 0-9.332031-4.175781-9.332031-9.332031 0-5.152343 4.179688-9.332031 9.332031-9.332031 5.15625 0 9.332032 4.179688 9.332032 9.332031zm0 0" fill="#966442"/><path d="m312.417969 135.332031c0 5.15625-4.179688 9.332031-9.332031 9.332031-5.15625 0-9.332032-4.175781-9.332032-9.332031 0-5.152343 4.175782-9.332031 9.332032-9.332031 5.152343 0 9.332031 4.179688 9.332031 9.332031zm0 0" fill="#66402d"/><path d="m218.246094 376.667969c0 5.152343-4.175782 9.332031-9.332032 9.332031-5.152343 0-9.332031-4.179688-9.332031-9.332031 0-5.15625 4.179688-9.332031 9.332031-9.332031 5.15625 0 9.332032 4.175781 9.332032 9.332031zm0 0" fill="#966442"/><path d="m312.417969 376.667969c0 5.152343-4.179688 9.332031-9.332031 9.332031-5.15625 0-9.332032-4.179688-9.332032-9.332031 0-5.15625 4.175782-9.332031 9.332032-9.332031 5.152343 0 9.332031 4.175781 9.332031 9.332031zm0 0" fill="#66402d"/><path d="m275.390625 312.390625c0-10.710937-8.679687-19.390625-19.390625-19.390625s-19.390625 8.679688-19.390625 19.390625c0 5.792969 2.542969 10.988281 6.574219 14.542969v19.414062c0 7.082032 5.738281 12.816406 12.816406 12.816406s12.816406-5.738281 12.816406-12.816406v-19.414062c4.03125-3.554688 6.574219-8.75 6.574219-14.542969zm0 0" fill="#966442"/><path d="m256 293c-.0625 0-.125.007812-.191406.011719v66.144531c.066406 0 .128906.007812.191406.007812 7.078125 0 12.816406-5.738281 12.816406-12.816406v-19.414062c4.027344-3.554688 6.574219-8.75 6.574219-14.542969 0-10.710937-8.679687-19.390625-19.390625-19.390625zm0 0" fill="#66402d"/></svg>