<?xml version="1.0"?>
<svg xmlns="http://www.w3.org/2000/svg" height="512px" viewBox="-81 0 512 512.09317" width="512px"><g><path d="m93.914062 281.648438c-13.414062 0-25.585937 7.859374-31.105468 20.085937-5.519532 12.226563-3.367188 26.554687 5.503906 36.617187v37.160157c0 14.140625 11.460938 25.601562 25.601562 25.601562 14.136719 0 25.597657-11.460937 25.597657-25.601562v-37.160157c8.871093-10.0625 11.027343-24.390624 5.503906-36.617187-5.519531-12.226563-17.6875-20.085937-31.101563-20.085937zm11.460938 46.726562c-1.859375 1.621094-2.929688 3.96875-2.929688 6.433594v40.703125c0 4.714843-3.820312 8.535156-8.53125 8.535156-4.714843 0-8.535156-3.820313-8.535156-8.535156v-40.703125c0-2.464844-1.066406-4.8125-2.925781-6.433594-3.601563-3.191406-5.648437-7.785156-5.605469-12.59375 0-9.425781 7.640625-17.066406 17.066406-17.066406 9.425782 0 17.066407 7.640625 17.066407 17.066406.039062 4.808594-2.003907 9.402344-5.605469 12.59375zm0 0" data-original="#000000" class="active-path" data-old_color="#005a86" fill="#005a86"/><path d="m42.714844 93.914062c1.113281-.015624 2.214844-.246093 3.242187-.683593 1.03125-.433594 1.984375-1.039063 2.816407-1.792969l1.023437-1.277344c.320313-.476562.582031-.992187.765625-1.539062.246094-.480469.421875-1 .511719-1.535156.097656-.5625.152343-1.132813.171875-1.707032-.03125-2.257812-.917969-4.421875-2.472656-6.058594-3.402344-3.210937-8.71875-3.210937-12.117188 0-.753906.832032-1.359375 1.785157-1.792969 2.816407-.4375 1.027343-.667969 2.128906-.683593 3.242187-.023438 2.269532.867187 4.457032 2.472656 6.058594 1.605468 1.605469 3.789062 2.5 6.0625 2.476562zm0 0" data-original="#000000" class="active-path" data-old_color="#005a86" fill="#005a86"/><path d="m145.113281 93.914062c1.113281-.015624 2.214844-.246093 3.242188-.683593 1.035156-.433594 1.988281-1.039063 2.816406-1.792969l1.023437-1.277344c.324219-.476562.582032-.992187.769532-1.539062.246094-.480469.417968-1 .511718-1.535156.09375-.5625.152344-1.132813.171876-1.707032-.035157-2.257812-.917969-4.421875-2.476563-6.058594-3.402344-3.210937-8.714844-3.210937-12.117187 0-.753907.832032-1.359376 1.785157-1.792969 2.816407-.4375 1.027343-.667969 2.128906-.683594 3.242187-.019531 2.269532.871094 4.457032 2.476563 6.058594 1.605468 1.605469 3.789062 2.5 6.058593 2.476562zm0 0" data-original="#000000" class="active-path" data-old_color="#005a86" fill="#005a86"/><path d="m45.957031 418.863281c-3.1875-1.242187-6.804687-.546875-9.300781 1.792969-.753906.828125-1.359375 1.78125-1.792969 2.8125-.4375 1.027344-.667969 2.128906-.683593 3.246094-.023438 2.269531.867187 4.453125 2.472656 6.058594 1.605468 1.605468 3.789062 2.496093 6.0625 2.472656 1.113281-.011719 2.214844-.246094 3.242187-.683594 1.03125-.429688 1.984375-1.039062 2.816407-1.789062l1.023437-1.28125c.320313-.476563.582031-.992188.765625-1.535157.246094-.484375.421875-1.003906.511719-1.539062.097656-.5625.152343-1.132813.171875-1.703125-.03125-2.261719-.917969-4.425782-2.472656-6.058594-.816407-.773438-1.773438-1.382812-2.816407-1.792969zm0 0" data-original="#000000" class="active-path" data-old_color="#005a86" fill="#005a86"/><path d="m148.355469 418.863281c-3.1875-1.242187-6.804688-.546875-9.300781 1.792969-.753907.828125-1.359376 1.78125-1.792969 2.8125-.4375 1.027344-.667969 2.128906-.683594 3.246094-.019531 2.269531.871094 4.453125 2.476563 6.058594 1.605468 1.605468 3.789062 2.496093 6.058593 2.472656 1.113281-.011719 2.214844-.246094 3.242188-.683594 1.035156-.429688 1.988281-1.039062 2.816406-1.789062l1.023437-1.28125c.324219-.476563.582032-.992188.769532-1.535157.246094-.484375.417968-1.003906.511718-1.539062.09375-.5625.152344-1.132813.171876-1.703125-.035157-2.261719-.917969-4.425782-2.476563-6.058594-.816406-.773438-1.773437-1.382812-2.816406-1.792969zm0 0" data-original="#000000" class="active-path" data-old_color="#005a86" fill="#005a86"/><path d="m307.246094 110.980469c-8.265625.5-16.308594 2.867187-23.527344 6.921875-1.773438.851562-3.53125 1.703125-5.28125 2.421875-10.582031 4.53125-18.773438 7.875-26.632812 10.820312-17.683594 6.996094-36.074219 12.054688-54.851563 15.085938-3.234375.46875-6.261719.855469-9.171875 1.152343v-79.070312c0-14.136719-11.460938-25.597656-25.601562-25.597656h-17.773438c-4.144531-24.65625-25.492188-42.714844-50.492188-42.714844-25.003906 0-46.347656 18.058594-50.492187 42.714844h-17.773437c-14.140626 0-25.601563 11.460937-25.601563 25.597656v375.46875c0 14.136719 11.460937 25.597656 25.601563 25.597656h17.773437c4.144531 24.65625 25.488281 42.714844 50.492187 42.714844 25 0 46.347657-18.058594 50.492188-42.714844h17.773438c14.140624 0 25.601562-11.460937 25.601562-25.597656v-251.574219c12.027344-2.1875 24.1875-3.585937 36.402344-4.179687 18.542968-.335938 37.078125 1.03125 55.371094 4.078125 2.816406.386719 5.785156.941406 8.816406 1.503906 8.300781 1.957031 16.839844 2.699219 25.351562 2.199219 22.019532-3.410156 37.703125-23.191406 36.007813-45.410156-1.695313-22.21875-20.203125-39.386719-42.484375-39.417969zm-136.53125 332.800781c0 4.710938-3.820313 8.53125-8.535156 8.53125h-25.601563c-4.710937 0-8.53125 3.820312-8.53125 8.535156 0 18.851563-15.28125 34.132813-34.132813 34.132813-18.851562 0-34.132812-15.28125-34.132812-34.132813 0-4.714844-3.820312-8.535156-8.535156-8.535156h-25.597656c-4.714844 0-8.535157-3.820312-8.535157-8.53125v-375.46875c0-4.710938 3.820313-8.53125 8.535157-8.53125h25.597656c4.714844 0 8.535156-3.820312 8.535156-8.535156 0-18.851563 15.28125-34.132813 34.132812-34.132813 18.851563 0 34.132813 15.28125 34.132813 34.132813 0 4.714844 3.820313 8.535156 8.53125 8.535156h25.601563c4.714843 0 8.535156 3.820312 8.535156 8.53125v79.863281c-17.21875-.03125-34.378906-2.035156-51.140625-5.972656-2.21875-.503906-4.40625-1.074219-6.554688-1.628906-12.238281-3.167969-26.121093-6.75-40.796875 1.917969-16.578125 9.773437-24.558594 29.433593-19.488281 47.996093s21.9375 31.433594 41.179687 31.425781c8.777344-.570312 17.285157-3.257812 24.796876-7.835937 2.398437-1.226563 4.769531-2.449219 7.152343-3.464844 10.296875-4.375 20.835938-8.148437 31.570313-11.304687 4.414062-1.296875 8.859375-2.40625 13.304687-3.492188zm141.054687-264.925781c-6.816406.261719-13.636719-.417969-20.265625-2.023438-3.320312-.613281-6.582031-1.21875-9.679687-1.640625-19.304688-3.1875-38.863281-4.597656-58.425781-4.214844-24.003907 1.136719-47.78125 5.148438-70.828126 11.949219-11.363281 3.332031-22.523437 7.324219-33.425781 11.945313-2.738281 1.167968-5.476562 2.558594-8.234375 3.976562-5.167968 3.246094-11 5.289063-17.066406 5.972656-11.546875.007813-21.667969-7.71875-24.710938-18.859374-3.039062-11.140626 1.757813-22.9375 11.707032-28.796876 3.375-2.054687 7.253906-3.121093 11.203125-3.074218 5.644531.320312 11.230469 1.320312 16.632812 2.980468 2.3125.605469 4.652344 1.203126 7.023438 1.703126 21.347656 5.128906 43.3125 7.222656 65.246093 6.230468 5.675782-.324218 11.699219-.957031 18.421876-1.953125 19.984374-3.199219 39.5625-8.558593 58.386718-15.992187 8.070313-3.046875 16.511719-6.46875 27.304688-11.09375 1.964844-.851563 3.910156-1.757813 5.878906-2.6875 5.007812-2.875 10.566406-4.660156 16.308594-5.230469 14.140625 0 25.601562 11.460937 25.601562 25.601563-.160156 12.335937-8.964844 22.863281-21.078125 25.207031zm0 0" data-original="#000000" class="active-path" data-old_color="#005a86" fill="#005a86"/></g> </svg>
