<?xml version="1.0"?>
<svg xmlns="http://www.w3.org/2000/svg" xmlns:xlink="http://www.w3.org/1999/xlink" version="1.1" id="Capa_1" x="0px" y="0px" viewBox="0 0 511.997 511.997" style="enable-background:new 0 0 511.997 511.997;" xml:space="preserve" width="512px" height="512px" class=""><g><g>
	<g>
		<path d="M379.357,179.645c5.908-8.438,8.177-18.67,6.388-28.814c-1.783-10.107-7.382-18.918-15.768-24.825    c3.603-2.54,6.777-5.711,9.38-9.429c5.908-8.438,8.177-18.67,6.388-28.814c-1.789-10.144-7.42-18.983-15.858-24.891    c-8.423-5.898-18.635-8.169-28.76-6.396c3.964-7.523,5.33-16.091,3.829-24.602c-1.789-10.144-7.42-18.983-15.858-24.892    c-8.437-5.908-18.67-8.179-28.814-6.387l-101.966,17.98c-10.144,1.788-18.984,7.42-24.892,15.857    c-5.908,8.438-8.177,18.67-6.388,28.814c1.54,8.73,5.922,16.259,12.025,21.803l-21.534,3.797    c-20.94,3.692-34.972,23.732-31.279,44.672c1.842,10.443,7.751,19.165,15.809,24.831c-11.839,8.348-18.486,23.053-15.809,38.238    c1.84,10.433,7.74,19.148,15.786,24.814c-3.61,2.542-6.79,5.717-9.398,9.441c-5.908,8.438-8.177,18.67-6.388,28.814    c3.692,20.939,23.732,34.967,44.671,31.278l15.45-2.724v43.127h-13.206h-20.709c-4.142,0-7.5,3.357-7.5,7.5s3.358,7.5,7.5,7.5    h13.209v23.505c0,0.02-0.003,0.039-0.003,0.058c0,0.019,0.003,0.038,0.003,0.058v30.947c0,0.02-0.003,0.039-0.003,0.058    c0,0.019,0.003,0.038,0.003,0.058v30.948c0,0.02-0.003,0.039-0.003,0.058c0,0.041,0.005,0.081,0.006,0.122    c0.069,26.914,21.983,48.789,48.912,48.789h2.854v2.854c0,15.554,12.654,28.208,28.208,28.208h20.707    c15.554,0,28.208-12.654,28.208-28.208v-2.854h2.854c26.969,0,48.91-21.939,48.915-48.906c0-0.002,0-0.003,0-0.005v-0.002    c0-0.001,0-0.002,0-0.003v-85.686h13.209c4.142,0,7.5-3.357,7.5-7.5s-3.358-7.5-7.5-7.5h-20.709h-13.208v-67.68l28.845-5.086    c10.144-1.788,18.984-7.42,24.892-15.857c5.908-8.438,8.177-18.67,6.388-28.814c-1.84-10.433-7.739-19.148-15.785-24.813    C373.57,186.544,376.749,183.369,379.357,179.645z M185.716,43.038c3.61-5.155,9.011-8.597,15.209-9.689L302.891,15.37    c1.382-0.243,2.767-0.364,4.142-0.364c4.79,0,9.458,1.463,13.463,4.268c5.155,3.609,8.596,9.011,9.689,15.209    c1.093,6.197-0.293,12.45-3.903,17.605c-3.609,5.154-9.01,8.595-15.206,9.689L209.091,79.757    c-12.792,2.233-25.025-6.326-27.279-19.115C180.72,54.446,182.106,48.193,185.716,43.038z M141.024,130.915    c-2.256-12.794,6.318-25.038,19.112-27.295l51.56-9.091c0.005-0.001,0.01-0.001,0.015-0.002l101.966-17.979    c0.001,0,0.002,0,0.003-0.001l29.998-5.289c1.382-0.243,2.767-0.364,4.142-0.364c4.79,0,9.458,1.463,13.464,4.268    c5.155,3.609,8.596,9.011,9.689,15.209c1.093,6.197-0.293,12.45-3.903,17.605c-3.61,5.155-9.011,8.597-15.209,9.689l-10.282,1.813    c-0.169,0.028-0.337,0.047-0.505,0.077l-173.277,30.552C155.197,152.044,143.249,143.536,141.024,130.915z M279.56,483.793    L279.56,483.793c-0.001,7.283-5.926,13.208-13.209,13.208h-20.706c-7.283,0-13.208-5.925-13.208-13.208v-2.854h47.122V483.793z     M331.329,346.337V362.4h-23.564c-4.142,0-7.5,3.357-7.5,7.5s3.358,7.5,7.5,7.5h23.564v16.063h-23.564c-4.142,0-7.5,3.357-7.5,7.5    s3.358,7.5,7.5,7.5h23.564v16.064h-23.564c-4.142,0-7.5,3.357-7.5,7.5s3.358,7.5,7.5,7.5h22.717    c-3.426,15.101-16.947,26.412-33.069,26.412h-10.354h-62.122h-10.354c-16.122,0-29.644-11.311-33.069-26.412h92.76    c4.142,0,7.5-3.357,7.5-7.5s-3.358-7.5-7.5-7.5h-93.607v-16.064h93.607c4.142,0,7.5-3.357,7.5-7.5s-3.358-7.5-7.5-7.5h-93.607    V377.4h93.607c4.142,0,7.5-3.357,7.5-7.5s-3.358-7.5-7.5-7.5h-93.607v-16.063H331.329z M242.789,331.338v-53.074l26.417-4.658    v57.732H242.789z M284.205,331.337V270.96l26.417-4.658v65.034h-0.001H284.205z M370.973,216.505    c1.093,6.197-0.294,12.45-3.903,17.605c-3.61,5.155-9.011,8.597-15.209,9.689l-116.381,20.521c-0.29-0.009-0.586,0.002-0.882,0.03    c-3.858,0.356-6.809,3.594-6.809,7.468v59.518h-26.417v-52.063c0-2.217-0.981-4.32-2.679-5.745    c-1.698-1.426-3.94-2.03-6.123-1.641l-24.252,4.276c-12.793,2.258-25.04-6.317-27.295-19.112    c-1.093-6.197,0.293-12.45,3.903-17.605c3.61-5.155,9.011-8.597,15.209-9.689l10.23-1.804c0.186-0.03,0.371-0.053,0.557-0.086    l173.231-30.546C356.778,195.36,368.745,203.869,370.973,216.505z M367.07,171.042c-3.61,5.155-9.011,8.597-15.209,9.689    l-10.309,1.818c-0.16,0.026-0.319,0.044-0.478,0.072l-173.232,30.546c-12.617,1.96-24.591-6.55-26.818-19.185    c-2.256-12.794,6.317-25.038,19.112-27.295l10.19-1.797c0.199-0.032,0.398-0.057,0.598-0.092l173.035-30.511    c1.289-0.211,2.58-0.327,3.862-0.327c4.79,0,9.458,1.463,13.464,4.268c5.155,3.609,8.596,9.011,9.689,15.209    C372.066,159.635,370.679,165.887,367.07,171.042z" data-original="#000000" class="active-path" data-old_color="#004f7c" fill="#004f7c"/>
	</g>
</g></g> </svg>
