<?xml version="1.0"?>
<svg xmlns="http://www.w3.org/2000/svg" height="512px" viewBox="0 0 512 512.00466" width="512px"><g><path d="m408.746094 244.535156c2.265625 0 4.433594-.898437 6.035156-2.5l18.109375-18.097656c3.230469-3.347656 3.1875-8.671875-.105469-11.964844-3.292968-3.289062-8.613281-3.335937-11.960937-.101562l-18.109375 18.097656c-2.441406 2.441406-3.167969 6.109375-1.847656 9.300781 1.320312 3.1875 4.429687 5.265625 7.878906 5.265625zm0 0" data-original="#000000" class="active-path" data-old_color="#000000" fill="#005079"/><path d="m282.035156 105.757812c2.265625 0 4.433594-.898437 6.035156-2.5l12.066407-12.074218c2.21875-2.144532 3.105469-5.316406 2.324219-8.300782-.777344-2.980468-3.109376-5.3125-6.09375-6.09375-2.984376-.78125-6.15625.109376-8.296876 2.328126l-12.066406 12.074218c-2.441406 2.441406-3.171875 6.109375-1.847656 9.300782 1.320312 3.1875 4.429688 5.265624 7.878906 5.265624zm0 0" data-original="#000000" class="active-path" data-old_color="#000000" fill="#005079"/><path d="m16.566406 495.484375c10.597656 10.5625 24.945313 16.503906 39.910156 16.519531h1.851563c15.59375-.535156 30.273437-7.496094 40.566406-19.226562l129.253907-147.710938 65.953124 65.953125c10.011719 9.972657 26.199219 9.972657 36.207032 0l12.066406-12.066406c9.886719-9.851563 10.023438-25.816406.308594-35.839844l164.90625-147.839843c2.605468-2.261719 4.1875-5.488282 4.382812-8.933594.199219-3.449219-1.007812-6.832032-3.34375-9.378906l-25.597656-31.476563c-.1875-.222656-.382812-.4375-.589844-.640625-2.402344-2.394531-5.652344-3.742188-9.046875-3.753906h-13.875v-13.832032c.011719-3.394531-1.339843-6.652343-3.746093-9.046874l-21.007813-21.019532c-3.421875-3.449218-8.511719-4.652344-13.117187-3.097656l-17.507813 5.839844 5.835937-17.527344c1.558594-4.597656.359376-9.683594-3.089843-13.101562l-51.199219-51.199219c-2.402344-2.394531-5.652344-3.746094-9.046875-3.753907h-13.839844v-13.808593c.007813-3.394531-1.339843-6.648438-3.746093-9.042969-.539063-.542969-1.152344-1.007812-1.816407-1.382812l-12.878906-7.332032c-2.394531-1.878906-5.371094-2.863281-8.414063-2.78124975-3.496093.11328175-6.796874 1.65624975-9.128906 4.26562475l-147.898437 165.0625c-10.15625-9.367187-25.84375-9.238281-35.839844.296875l-12.078125 12.066406c-4.800781 4.800782-7.496094 11.3125-7.496094 18.105469 0 6.789063 2.695313 13.300781 7.496094 18.101563l65.957031 65.957031-147.6875 129.253906c-11.75 10.277344-18.714843 24.964844-19.2343748 40.566407-.5234372 15.601562 5.4492188 30.722656 16.4882818 41.761718zm290.636719-477.160156 8.53125 4.882812v15.4375c0 7.066407 5.730469 12.800781 12.800781 12.800781h16.339844l21.632812 21.640626-30.15625 30.171874c-2.21875 2.144532-3.109374 5.316407-2.328124 8.300782.78125 2.980468 3.113281 5.3125 6.09375 6.09375 2.984374.78125 6.15625-.109375 8.300781-2.328125l30.164062-30.175781 14.371094 14.371093-7.679687 23.117188c-1.550782 4.609375-.355469 9.695312 3.082031 13.132812 3.433593 3.4375 8.523437 4.632813 13.128906 3.082031l23.101563-7.679687 17.917968 17.917969v16.332031c0 7.070313 5.734375 12.800781 12.800782 12.800781h16.050781l22 27.007813-162.722657 145.734375-12.390624-12.382813 36.207031-36.207031c3.234375-3.347656 3.1875-8.671875-.101563-11.960938-3.292968-3.292968-8.613281-3.339843-11.964844-.105468l-36.207031 36.207031-18.105469-18.109375 60.347657-60.335938c3.234375-3.351562 3.1875-8.671874-.105469-11.964843-3.289062-3.289063-8.613281-3.335938-11.960938-.101563l-60.347656 60.335938-18.101562-18.148438 96.546875-96.496094c3.234375-3.347656 3.1875-8.667968-.101563-11.960937-3.292968-3.292969-8.613281-3.339844-11.964844-.105469l-96.542968 96.539063-24.140625-24.132813 84.476562-84.480468c3.234375-3.347657 3.1875-8.667969-.101562-11.960938-3.292969-3.292969-8.613281-3.339844-11.964844-.105469l-84.476563 84.480469-24.140624-24.140625 60.347656-60.339844c2.382812-2.097656 3.402344-5.34375 2.652344-8.429687-.753907-3.082032-3.15625-5.492188-6.238282-6.257813-3.082031-.761719-6.332031.246094-8.4375 2.621094l-60.347656 60.339844-12.382812-12.390625zm-194.117187 175.4375 12.074218-12.066407c3.375-3.226562 8.691406-3.226562 12.066406 0l193.082032 193.09375c3.328125 3.332032 3.328125 8.726563 0 12.058594l-12.066406 12.074219c-1.597657 1.601563-3.769532 2.5-6.035157 2.5s-4.4375-.898437-6.039062-2.5l-72.351563-72.398437-24.101562-24.097657v-.050781h-.050782l-24.171874-24.183594-72.40625-72.398437c-3.308594-3.328125-3.308594-8.703125 0-12.03125zm-82.578126 232.191406 148.566407-130.003906 12.457031 12.457031-52.496094 52.5c-2.21875 2.140625-3.109375 5.3125-2.328125 8.296875s3.113281 5.3125 6.09375 6.09375c2.984375.78125 6.15625-.109375 8.300781-2.324219l52.496094-52.5 12.460938 12.460938-130.007813 148.574218c-7.171875 8.191407-17.414062 13.042969-28.296875 13.40625-10.878906.363282-21.421875-3.800781-29.125-11.496093l-6.03125 6.03125 5.972656-6.074219c-7.695312-7.699219-11.859374-18.246094-11.496093-29.125.363281-10.882812 5.222656-21.128906 13.417969-28.296875zm0 0" data-original="#000000" class="active-path" data-old_color="#000000" fill="#005079"/><path d="m58.789062 478.808594c6.785157.015625 13.300782-2.679688 18.097657-7.480469 8.644531-8.632813 9.988281-22.164063 3.207031-32.324219-6.777344-10.160156-19.789062-14.117187-31.078125-9.453125-11.285156 4.667969-17.703125 16.660157-15.328125 28.640625 2.378906 11.980469 12.886719 20.613282 25.101562 20.617188zm-6.042968-31.570313c2.441406-2.441406 6.109375-3.171875 9.300781-1.851562 3.1875 1.320312 5.265625 4.429687 5.265625 7.882812s-2.078125 6.5625-5.265625 7.882813c-3.191406 1.320312-6.859375.589844-9.300781-1.847656-1.625-1.597657-2.542969-3.777344-2.542969-6.054688s.917969-4.460938 2.542969-6.054688zm0 0" data-original="#000000" class="active-path" data-old_color="#000000" fill="#005079"/></g> </svg>
