<?xml version="1.0"?>
<svg xmlns="http://www.w3.org/2000/svg" xmlns:xlink="http://www.w3.org/1999/xlink" version="1.1" id="Capa_1" x="0px" y="0px" viewBox="0 0 480 480" style="enable-background:new 0 0 480 480;" xml:space="preserve" width="512px" height="512px"><g><g>
	<g>
		<path d="M308,0H180c-4.418,0-8,3.582-8,8v8h-24c-4.418,0-8,3.582-8,8v48c0,4.418,3.582,8,8,8h24v6.112l-31.16,62.312    c-1.975,3.952-0.372,8.757,3.58,10.732c1.112,0.555,2.337,0.844,3.58,0.844h32c3.032,0.001,5.805-1.712,7.16-4.424L216.944,96H252    v16h-8c-4.418,0-8,3.582-8,8v44.688l-84.288,84.28c-7.525,7.487-11.742,17.673-11.712,28.288V440c0.026,22.08,17.92,39.974,40,40    h144c22.08-0.026,39.974-17.92,40-40V120c0-4.418-3.582-8-8-8h-8V96h40c4.418,0,8-3.582,8-8C395.947,39.421,356.579,0.053,308,0z     M156,64V32h16v32H156z M175.056,144h-14.112l24-48h14.112L175.056,144z M348,440c0,13.255-10.745,24-24,24H180    c-13.255,0-24-10.745-24-24V277.256c-0.019-6.369,2.51-12.482,7.024-16.976L199.312,224H348V440z M348,208H215.312l32-32H348V208z     M348,160h-96v-32h96V160z M268,112V96h64v16H268z M340,80H188V16h120c36.653,0.044,67.44,27.579,71.56,64H340z" data-original="#000000" class="active-path" data-old_color="#005a86" fill="#005a86"/>
	</g>
</g><g>
	<g>
		<rect x="84" y="40" width="40" height="16" data-original="#000000" class="active-path" data-old_color="#005a86" fill="#005a86"/>
	</g>
</g><g>
	<g>
		<rect x="100.001" y="-1.888" transform="matrix(0.4472 -0.8944 0.8944 0.4472 45.3912 105.4434)" width="16" height="35.776" data-original="#000000" class="active-path" data-old_color="#005a86" fill="#005a86"/>
	</g>
</g><g>
	<g>
		<rect x="90.115" y="71.998" transform="matrix(0.8944 -0.4472 0.4472 0.8944 -24.3741 56.7455)" width="35.776" height="16" data-original="#000000" class="active-path" data-old_color="#005a86" fill="#005a86"/>
	</g>
</g></g> </svg>
