<?xml version="1.0"?>
<svg xmlns="http://www.w3.org/2000/svg" xmlns:xlink="http://www.w3.org/1999/xlink" version="1.1" id="Layer_1" x="0px" y="0px" viewBox="0 0 512 512" style="enable-background:new 0 0 512 512;" xml:space="preserve" width="512px" height="512px" class=""><g><g>
	<g>
		<path d="M447.363,206.108H212.621V54.315c0-17.656-14.364-32.022-32.021-32.022h-47.644V9.289c0-5.13-4.159-9.289-9.289-9.289    c-5.13,0-9.289,4.159-9.289,9.289v13.005H66.737c-17.656,0-32.022,14.366-32.022,32.022v156.478    c0,30.413,24.743,55.156,55.156,55.156h15.431v63.316c0,26.42,19.195,48.441,44.37,52.854v120.591c0,5.13,4.159,9.289,9.289,9.289    H336.44c5.13,0,9.289-4.159,9.289-9.289v-93.922c61.965-4.755,110.924-56.695,110.924-119.857v-24.463    c11.965-3.92,20.633-15.183,20.633-28.439C477.285,219.531,463.863,206.108,447.363,206.108z M53.293,54.315    c0-7.413,6.032-13.444,13.444-13.444h113.861c7.413,0,13.443,6.032,13.443,13.444v4.335H53.293V54.315z M89.872,247.372    c-20.169,0-36.579-16.409-36.579-36.579V77.228h140.75v170.144H89.872z M336.44,390.565h-69.896c-5.13,0-9.289,4.159-9.289,9.289    c0,5.13,4.159,9.289,9.289,9.289h60.607v84.279h-158.9V373.636c0-5.13-4.159-9.289-9.289-9.289    c-19.343,0-35.081-15.738-35.081-35.081V265.95h314.194v22.981h0.001C438.076,344.973,392.482,390.565,336.44,390.565z     M447.365,247.372H212.621v-22.686h234.744c6.255,0,11.344,5.088,11.344,11.344C458.707,242.284,453.619,247.372,447.365,247.372z    " data-original="#000000" class="active-path" data-old_color="#004f7c" fill="#004f7c"/>
	</g>
</g></g> </svg>
