<?xml version="1.0" encoding="iso-8859-1"?>
<!-- Generator: Adobe Illustrator 21.0.0, SVG Export Plug-In . SVG Version: 6.00 Build 0)  -->
<svg version="1.1" id="Capa_1" xmlns="http://www.w3.org/2000/svg" xmlns:xlink="http://www.w3.org/1999/xlink" x="0px" y="0px"
	 viewBox="0 0 512 512" style="enable-background:new 0 0 512 512;" xml:space="preserve">
<polygon style="fill:#F5C99D;" points="442.413,300.486 256,201.034 235.984,384.999 256,512 442.413,512 "/>
<polygon style="fill:#F3E5CB;" points="69.587,300.486 69.587,512 256,512 256,201.034 "/>
<polygon style="fill:#F5C99D;" points="256,201.034 69.587,201.034 17.696,300.486 204.109,300.486 "/>
<polygon style="fill:#E6A160;" points="256,201.034 307.891,300.486 494.304,300.486 442.413,201.034 "/>
<g>
	<rect x="241" style="fill:#42E0A6;" width="30" height="92.78"/>
	
		<rect x="162.432" y="15.631" transform="matrix(0.9239 -0.3827 0.3827 0.9239 -10.2287 72.6229)" style="fill:#42E0A6;" width="30.001" height="92.782"/>
	
		<rect x="95.814" y="60.139" transform="matrix(0.7071 -0.7071 0.7071 0.7071 -42.8703 109.5583)" style="fill:#42E0A6;" width="30" height="92.779"/>
</g>
<g>
	
		<rect x="354.787" y="91.522" transform="matrix(0.7071 -0.7071 0.7071 0.7071 42.1798 314.8745)" style="fill:#00B066;" width="92.779" height="30"/>
	
		<rect x="288.183" y="47.029" transform="matrix(0.3827 -0.9239 0.9239 0.3827 149.2287 347.3969)" style="fill:#00B066;" width="92.782" height="30.001"/>
</g>
<g>
</g>
<g>
</g>
<g>
</g>
<g>
</g>
<g>
</g>
<g>
</g>
<g>
</g>
<g>
</g>
<g>
</g>
<g>
</g>
<g>
</g>
<g>
</g>
<g>
</g>
<g>
</g>
<g>
</g>
</svg>
