<?xml version="1.0" encoding="iso-8859-1"?>
<!-- Generator: Adobe Illustrator 21.0.0, SVG Export Plug-In . SVG Version: 6.00 Build 0)  -->
<svg version="1.1" id="Capa_1" xmlns="http://www.w3.org/2000/svg" xmlns:xlink="http://www.w3.org/1999/xlink" x="0px" y="0px"
	 viewBox="0 0 512 512" style="enable-background:new 0 0 512 512;" xml:space="preserve">
<polygon style="fill:#F5C99D;" points="285.928,437.144 285.928,286.12 331.428,286.12 346.428,296.128 361.428,286.12 
	406.928,286.12 406.928,437.144 "/>
<polygon style="fill:#F3E5CB;" points="105.072,437.144 105.072,286.12 150.572,286.12 165.572,296.128 180.572,286.12 
	226.072,286.12 226.072,437.144 "/>
<rect x="150.57" y="286.12" style="fill:#E6A160;" width="30" height="55.04"/>
<rect x="331.43" y="286.12" style="fill:#CF7B2E;" width="30" height="55.04"/>
<polygon style="fill:#F5C99D;" points="285.928,196.048 285.928,45.024 331.428,45.024 346.428,55.032 361.428,45.024 
	406.928,45.024 406.928,196.048 "/>
<polygon style="fill:#F3E5CB;" points="105.072,196.048 105.072,45.024 150.572,45.024 165.572,55.032 180.572,45.024 
	226.072,45.024 226.072,196.048 "/>
<rect x="150.57" y="45.02" style="fill:#E6A160;" width="30" height="55.04"/>
<rect x="331.43" y="45.02" style="fill:#CF7B2E;" width="30" height="55.04"/>
<rect x="30.02" style="fill:#B4D2D7;" width="30" height="512"/>
<rect x="451.98" style="fill:#799BAF;" width="30" height="512"/>
<g>
	<polygon style="fill:#FF2828;" points="512,166.023 256,166.023 235.984,196.047 256,226.072 512,226.072 	"/>
	<polygon style="fill:#FF2828;" points="512,467.167 512,407.12 256,407.12 235.984,437.143 256,467.167 	"/>
</g>
<g>
	<rect y="407.12" style="fill:#FF6426;" width="256" height="60.05"/>
	<rect y="166.02" style="fill:#FF6426;" width="256" height="60.05"/>
</g>
<g>
</g>
<g>
</g>
<g>
</g>
<g>
</g>
<g>
</g>
<g>
</g>
<g>
</g>
<g>
</g>
<g>
</g>
<g>
</g>
<g>
</g>
<g>
</g>
<g>
</g>
<g>
</g>
<g>
</g>
</svg>
