<?xml version="1.0" encoding="iso-8859-1"?>
<!-- Generator: Adobe Illustrator 21.0.0, SVG Export Plug-In . SVG Version: 6.00 Build 0)  -->
<svg version="1.1" id="Capa_1" xmlns="http://www.w3.org/2000/svg" xmlns:xlink="http://www.w3.org/1999/xlink" x="0px" y="0px"
	 viewBox="0 0 512 512" style="enable-background:new 0 0 512 512;" xml:space="preserve">
<polygon style="fill:#B4D2D7;" points="386.924,482 386.924,452 230.968,452 220.96,467 230.968,482 "/>
<rect x="75.01" y="452" style="fill:#E1EBF0;" width="155.96" height="30"/>
<polygon style="fill:#F5C99D;" points="341.846,0 262.23,0 210.952,20.016 210.952,241.772 341.846,221.756 "/>
<polygon style="fill:#F3E5CB;" points="120.09,0 120.09,221.756 230.968,241.772 230.968,20.016 199.707,0 "/>
<polygon style="fill:#E6A160;" points="393.327,221.756 262.23,221.756 210.952,241.772 230.968,378.93 393.327,378.93 "/>
<polygon style="fill:#F5C99D;" points="68.609,221.756 68.609,378.93 230.968,378.93 230.968,241.772 199.707,221.756 "/>
<rect x="30.01" y="378.93" style="fill:#B4D2D7;" width="30" height="58.07"/>
<rect x="401.92" y="378.93" style="fill:#799BAF;" width="30" height="58.07"/>
<g>
	<path style="fill:#07485E;" d="M45.012,422c-24.813,0-45,20.187-45,45s20.187,45,45,45s45-20.187,45-45S69.825,422,45.012,422z"/>
	<path style="fill:#07485E;" d="M416.924,422c-24.813,0-45,20.187-45,45s20.187,45,45,45s45-20.187,45-45S441.737,422,416.924,422z"
		/>
</g>
<rect x="230.97" y="221.76" style="fill:#B35D1D;" width="31.26" height="72.943"/>
<g>
	<rect x="199.71" y="221.76" style="fill:#CF7B2E;" width="31.26" height="72.943"/>
	<rect x="230.97" style="fill:#CF7B2E;" width="31.26" height="72.943"/>
</g>
<rect x="199.71" style="fill:#E6A160;" width="31.26" height="72.943"/>
<polygon style="fill:#B4D2D7;" points="431.948,133.333 431.948,363.93 230.968,363.93 220.96,378.93 230.968,393.93 
	461.948,393.93 461.948,163.333 512,163.333 512,133.333 "/>
<rect y="363.93" style="fill:#E1EBF0;" width="230.97" height="30"/>
<g>
</g>
<g>
</g>
<g>
</g>
<g>
</g>
<g>
</g>
<g>
</g>
<g>
</g>
<g>
</g>
<g>
</g>
<g>
</g>
<g>
</g>
<g>
</g>
<g>
</g>
<g>
</g>
<g>
</g>
</svg>
