<?xml version="1.0" encoding="iso-8859-1"?>
<!-- Generator: Adobe Illustrator 21.0.0, SVG Export Plug-In . SVG Version: 6.00 Build 0)  -->
<svg version="1.1" id="Capa_1" xmlns="http://www.w3.org/2000/svg" xmlns:xlink="http://www.w3.org/1999/xlink" x="0px" y="0px"
	 viewBox="0 0 512 512" style="enable-background:new 0 0 512 512;" xml:space="preserve">
<polygon style="fill:#FF2828;" points="512,75.049 256,0.009 235.984,491.975 448.266,511.991 512,511.991 "/>
<polygon style="fill:#FF6426;" points="0,75.049 0,511.991 63.734,511.991 256,491.975 256,0.009 "/>
<polygon style="fill:#EFE2DD;" points="448.266,112.357 256,112.357 245.992,127.357 256,142.357 448.266,142.357 "/>
<rect x="63.734" y="112.36" style="fill:#FFF5F5;" width="192.27" height="30"/>
<polygon style="fill:#EFE2DD;" points="448.266,191.143 256,191.143 235.984,491.975 384.531,511.991 448.266,511.991 "/>
<polygon style="fill:#FFF5F5;" points="63.734,191.143 63.734,511.991 127.469,511.991 256,491.975 256,191.143 "/>
<polygon style="fill:#B35D1D;" points="320.266,254.928 271,254.928 245.992,264.936 245.992,403.475 320.266,383.459 "/>
<polygon style="fill:#CF7B2E;" points="191.734,254.928 191.734,383.459 256,403.475 256,264.936 241,254.928 "/>
<rect x="241" y="254.93" style="fill:#F5C99D;" width="30" height="58.47"/>
<polygon style="fill:#CF7B2E;" points="384.531,383.459 256,383.459 235.984,447.725 256,511.991 384.531,511.991 "/>
<rect x="127.47" y="383.46" style="fill:#E6A160;" width="128.53" height="128.53"/>
<rect x="176.73" y="383.46" style="fill:#F3E5CB;" width="30" height="58.47"/>
<rect x="305.27" y="383.46" style="fill:#F5C99D;" width="30" height="58.47"/>
<g>
</g>
<g>
</g>
<g>
</g>
<g>
</g>
<g>
</g>
<g>
</g>
<g>
</g>
<g>
</g>
<g>
</g>
<g>
</g>
<g>
</g>
<g>
</g>
<g>
</g>
<g>
</g>
<g>
</g>
</svg>
